<svg width="160" height="196" viewBox="0 0 160 196" fill="none" xmlns="http://www.w3.org/2000/svg">
<path d="M91.0255 15.2114H67.8807C44.7922 15.2114 26.0752 33.9284 26.0752 57.017V120.617C26.0752 143.706 44.7922 162.423 67.8807 162.423H91.0255C114.114 162.423 132.831 143.706 132.831 120.617V57.017C132.831 33.9284 114.114 15.2114 91.0255 15.2114Z" fill="#FDF2E0"/>
<path d="M106.679 180.851L65.2926 178.089C63.4362 177.966 62.0305 176.161 62.1685 174.078C65.0032 151.786 68.1358 128.782 65.8654 118.672C66.0046 116.59 67.6375 114.987 69.4939 115.112L110.88 117.873C112.736 117.996 113.58 118.049 114.54 120.964C117.134 128.516 112.916 154.894 110.307 177.291C110.168 179.373 108.535 180.975 106.679 180.851V180.851Z" fill="#E37712"/>
<path d="M103.917 180.851L62.5304 178.089C60.674 177.966 59.2683 176.161 59.4063 174.078C62.241 151.786 65.3736 128.782 63.1032 118.672C63.2424 116.59 64.8753 114.987 66.7317 115.112L108.118 117.873C109.974 117.996 110.818 118.049 111.778 120.964C114.372 128.516 110.154 154.894 107.545 177.291C107.406 179.373 105.773 180.975 103.917 180.851V180.851Z" fill="#D1500E"/>
<path d="M103.313 180.924L61.9269 178.162C60.0705 178.039 58.6648 176.234 58.8028 174.152C61.6374 151.859 64.7701 128.855 62.4997 118.745C62.6389 116.663 64.2718 115.06 66.1282 115.185L107.514 117.946C109.371 118.07 110.215 118.122 111.175 121.037C113.769 128.589 109.55 154.968 106.941 177.364C106.802 179.446 105.169 181.048 103.313 180.924V180.924Z" fill="#F0A02F"/>
<path d="M111.084 120.768C110.162 118.119 109.313 118.066 107.515 117.946L66.1293 115.185C65.5199 115.145 64.9349 115.292 64.4183 115.581C64.141 116.751 63.9078 118.028 63.5194 119.241C63.3411 119.798 63.1664 120.769 63.004 121.947C63.5927 127.57 63.1848 135.568 62.3091 144.684C62.4862 151.003 62.8379 156.204 63.4595 163.972C63.7588 167.712 99.1862 169.827 101.603 161.732C101.67 150.765 104.678 135.01 105.401 124.362C107.187 123.325 109.101 122.167 111.084 120.766V120.768Z" fill="#E37712"/>
<path d="M129.952 57.6583C131.173 54.7247 133.752 54.2093 138.222 56.2025C141.935 57.8574 142.812 60.1046 142.051 63.5559C130.706 115.007 108.47 120.835 97.0634 128.439C92.4725 133.32 86.9901 115.134 90.7114 109.656C117.376 97.3773 120.816 89.638 129.952 57.6571V57.6583Z" fill="#008744"/>
<path d="M131.202 35.8325C129.373 37.7169 128.078 39.8139 127.818 42.4617C127.437 46.3418 129.604 50.2756 132.367 52.9673C133.718 54.2826 135.339 55.4294 137.171 56.0352C139.031 56.6507 140.924 57.6253 142.719 56.288C143.681 55.5711 144.302 54.5183 144.84 53.4692C145.875 51.4529 146.702 49.3388 147.306 47.1674C147.701 45.7506 147.979 44.1617 147.233 42.883C147.012 42.5044 146.708 42.1674 146.544 41.7631C146.346 41.2709 146.373 40.7238 146.257 40.2084C145.945 38.8259 144.463 37.7829 142.996 37.9148C142.779 35.94 140.705 34.3352 138.651 34.5526C138.078 33.4082 136.555 32.9282 135.259 33.1749C133.964 33.4216 132.867 34.2399 131.92 35.1266C131.672 35.3586 131.433 35.5931 131.202 35.8325V35.8325Z" fill="#F7A68F"/>
<path d="M128.826 39.202C129.264 39.2533 129.699 39.3779 130.096 39.5598C131.112 40.0239 131.928 40.8104 132.678 41.6165C133.216 42.1954 133.744 42.8134 134.001 43.5486C134.259 44.2838 134.197 45.1705 133.65 45.7433C133.054 46.3673 132.062 46.465 131.188 46.3576C131.683 46.5994 132.013 47.1282 132.001 47.6631C131.967 49.2545 129.731 50.1338 128.449 49.3021C127.099 48.424 125.349 46.2635 125.065 44.5684C124.792 42.9355 125.284 40.4819 126.856 39.5635C127.442 39.2203 128.139 39.1226 128.826 39.202V39.202Z" fill="#F7A68F"/>
<path d="M130.991 55.8411L130.292 58.6268C130.292 58.6268 131.72 64.3987 140.925 62.2932L141.213 61.2502C135.433 61.619 131.872 57.1088 130.991 55.8411V55.8411Z" fill="#ED8A72"/>
<path d="M132.745 48.8467L130.992 55.8398C131.874 57.1063 135.434 61.6178 141.214 61.249L143.52 52.9099L132.745 48.8467Z" fill="#F7A68F"/>
<path d="M135.207 48.7124C135.356 49.3414 135.445 49.9899 135.722 50.5773C136.359 51.9269 137.934 52.7219 139.475 52.7573C141.017 52.7928 142.508 52.1711 143.765 51.3126C144.634 50.719 145.429 49.8348 145.655 48.8138C145.811 48.1079 145.807 47.3726 145.987 46.6716C145.676 47.4239 144.666 47.6535 144.146 48.2911C144.115 48.3289 144.083 48.3753 144.097 48.423C144.205 48.8284 144.944 48.6538 144.966 49.0861C144.981 49.3914 144.363 49.8152 144.14 49.9581C143.41 50.4222 142.444 50.5517 141.589 50.4894C140.846 50.4357 140.04 50.2329 139.616 49.643C139.247 49.1289 139.265 48.4291 139.501 47.8465C139.737 47.2639 140.161 46.7742 140.577 46.2942C141.307 45.454 142.038 44.6137 142.767 43.7735C141.867 44.8091 139.831 45.1609 139.157 46.3492C139.077 46.4896 139.033 46.6448 138.961 46.7889C138.75 47.2102 138.288 47.4997 137.803 47.529C137.319 47.5583 136.828 47.3287 136.542 46.9513C136.344 46.6899 136.243 46.3724 136.167 46.0561C135.54 43.4572 137.713 42.3836 139.248 40.6347C139.343 40.526 139.44 40.3771 139.372 40.2513C139.264 40.0534 138.951 40.178 138.776 40.3233C137.714 41.2051 135.693 43.986 134.075 43.6404C133.59 43.5365 133.177 43.2227 132.864 42.8502C132.587 42.5204 132.37 42.1186 132.376 41.6948C132.382 41.2368 132.642 40.8216 132.908 40.4418C133.388 39.7591 133.917 39.1069 134.49 38.4938C134.764 38.2007 135.064 37.8807 135.09 37.4875C134.803 37.474 134.557 37.6731 134.348 37.8624C133.607 38.5366 132.863 39.2412 132.279 40.0424C131.823 40.6689 131.372 41.155 130.498 40.6054C130.175 40.4027 129.925 40.112 129.681 39.8262C129.334 40.2757 129.326 40.9071 129.538 41.4286C130.087 42.7867 131.879 43.1958 132.863 44.2669C134.009 45.5126 134.826 47.0905 135.208 48.71L135.207 48.7124Z" fill="#ED8A72"/>
<path d="M132.944 45.6323C132.482 44.6687 132.02 43.7051 131.559 42.7402C131.864 42.8062 132.133 42.9723 132.389 43.1445C133.271 43.738 134.092 44.4391 134.679 45.3062C135.267 46.1733 135.609 47.2187 135.49 48.2483C135.412 48.9224 135.118 49.599 134.56 50.0143C133.818 50.5663 130.549 50.5101 131.444 49.3389C131.859 48.7954 132.747 48.7124 133.156 48.092C133.68 47.2981 133.314 46.4066 132.943 45.631L132.944 45.6323Z" fill="#ED8A72"/>
<path d="M29.4706 56.2711C28.3299 53.3058 25.7652 52.7208 21.2427 54.5918C17.4872 56.1465 16.5493 58.3681 17.2161 61.839C27.1636 113.578 49.2349 120.006 60.4305 127.916C64.887 132.921 71.5358 114.351 67.9635 108.775C41.6408 95.7789 37.7364 88.4865 29.4706 56.2711V56.2711Z" fill="#008744"/>
<path d="M28.8123 34.4184C30.5906 36.3517 31.8277 38.4829 32.0158 41.1368C32.2918 45.0254 30.0202 48.8993 27.1831 51.5154C25.797 52.7941 24.1458 53.8957 22.2979 54.4526C20.422 55.0168 18.5034 55.9413 16.7447 54.5552C15.8019 53.8126 15.2107 52.7428 14.7002 51.679C13.7208 49.6358 12.9513 47.4997 12.4066 45.3124C12.0513 43.8859 11.8155 42.2897 12.596 41.0317C12.8268 40.6592 13.1406 40.3307 13.3153 39.9301C13.5266 39.444 13.5144 38.8957 13.645 38.384C13.9956 37.01 15.5051 36.0085 16.967 36.1795C17.2381 34.2108 19.3546 32.6622 21.4015 32.9358C22.0048 31.8073 23.54 31.3688 24.8297 31.6509C26.1194 31.9331 27.1929 32.7806 28.1138 33.693C28.3544 33.9323 28.5876 34.1729 28.8136 34.4172L28.8123 34.4184Z" fill="#F7A68F"/>
<path d="M31.0976 37.8515C30.6579 37.8906 30.2195 38.0042 29.8189 38.1751C28.7905 38.6124 27.9539 39.3757 27.1821 40.1622C26.6288 40.7264 26.0841 41.3298 25.8069 42.0589C25.5297 42.788 25.5688 43.6759 26.0988 44.2621C26.6777 44.9021 27.6657 45.0266 28.5426 44.9436C28.0407 45.172 27.6963 45.691 27.6938 46.2259C27.6853 47.8173 29.897 48.7577 31.2002 47.9602C32.5741 47.1187 34.3816 45.0071 34.7114 43.3193C35.0289 41.6937 34.6027 39.2279 33.0565 38.268C32.4801 37.9101 31.7852 37.7917 31.0976 37.8539V37.8515Z" fill="#F7A68F"/>
<path d="M18.1221 59.5797L18.3761 60.6068C27.52 62.9615 29.104 57.2299 29.104 57.2299L28.4738 54.3916C24.9674 58.8835 19.689 59.4978 18.1221 59.5797V59.5797Z" fill="#ED8A72"/>
<path d="M28.4738 54.3916L26.9179 47.3875L16.0361 51.1576L18.1221 59.5797C19.689 59.4991 24.9675 58.8835 28.4738 54.3916V54.3916Z" fill="#F7A68F"/>
<path d="M24.4608 47.186C24.2959 47.8101 24.1884 48.4562 23.8953 49.0363C23.2224 50.3675 21.6262 51.121 20.0849 51.1137C18.5436 51.1076 17.0695 50.4457 15.836 49.5541C14.9823 48.9374 14.2117 48.0312 14.0138 47.0053C13.8758 46.2945 13.9014 45.5605 13.7402 44.8546C14.0309 45.6154 15.0348 45.8719 15.538 46.5229C15.5685 46.5619 15.5978 46.6096 15.5832 46.656C15.4635 47.059 14.7295 46.8648 14.6965 47.2959C14.6733 47.6 15.2791 48.0409 15.4989 48.1899C16.2146 48.6736 17.177 48.8299 18.0343 48.7908C18.7793 48.7566 19.5903 48.5759 20.0299 47.9982C20.4134 47.4938 20.4134 46.794 20.1936 46.2053C19.9737 45.6166 19.5634 45.1147 19.1604 44.625C18.4532 43.7652 17.7461 42.9054 17.039 42.0456C17.911 43.1057 19.9359 43.5124 20.5783 44.7178C20.654 44.8594 20.6931 45.017 20.7615 45.1623C20.9605 45.5886 21.4149 45.8914 21.8985 45.933C22.3821 45.9745 22.8792 45.7595 23.1748 45.3895C23.3799 45.133 23.4886 44.8179 23.5741 44.5053C24.2715 41.9247 22.1281 40.7925 20.6406 39.0021C20.5477 38.891 20.4562 38.7395 20.527 38.6149C20.6393 38.4195 20.9496 38.5527 21.1218 38.7041C22.1599 39.614 24.1042 42.4486 25.7309 42.1469C26.2182 42.0566 26.6396 41.7537 26.962 41.391C27.2478 41.0685 27.4762 40.6728 27.4811 40.249C27.4872 39.7911 27.238 39.3685 26.9828 38.9826C26.5211 38.2864 26.0106 37.6208 25.4549 36.9918C25.1887 36.6914 24.898 36.3641 24.8834 35.9696C25.1704 35.9635 25.411 36.1687 25.6149 36.3653C26.3379 37.059 27.0622 37.7832 27.6239 38.6003C28.0636 39.239 28.5008 39.7373 29.3899 39.2122C29.7173 39.0192 29.9749 38.7346 30.2278 38.4562C30.5624 38.9154 30.5526 39.5468 30.3279 40.0622C29.7417 41.4044 27.9403 41.7659 26.9278 42.8089C25.7493 44.0229 24.8895 45.5788 24.4632 47.1872L24.4608 47.186Z" fill="#ED8A72"/>
<path d="M26.8058 44.1681C27.2931 43.2167 27.7816 42.2666 28.2689 41.3152C27.9624 41.3726 27.6888 41.5314 27.4275 41.6975C26.5298 42.2666 25.6908 42.9456 25.0801 43.7969C24.4695 44.6481 24.0994 45.6838 24.1898 46.7158C24.2496 47.3911 24.5256 48.0763 25.0716 48.5062C25.797 49.0778 29.0677 49.1107 28.2042 47.9151C27.8036 47.3606 26.9182 47.2531 26.5261 46.6229C26.0242 45.8157 26.4138 44.9339 26.8058 44.1694V44.1681Z" fill="#ED8A72"/>
<path d="M101.414 110.565C97.0036 109.735 92.7914 109.77 89.7357 109.247C84.9311 108.425 81.9072 108.325 79.5183 108.247C76.6544 108.154 60.3378 107.69 57.5557 108.941C54.7736 110.191 54.8066 114.445 53.6073 118.186C52.7536 120.85 51.9683 131.365 51.9732 134.213C51.9964 150.411 52.3774 157.463 53.5364 171.957C53.8955 176.452 96.4834 178.996 99.3888 169.265C99.5171 148.38 108.52 113.042 101.413 110.565H101.414Z" fill="#008744"/>
<path d="M66.3673 109.888C66.3673 109.888 65.6895 118.318 72.5007 122.598L76.0681 120.003L79.4657 123.357C79.4657 123.357 87.1538 117.629 89.1225 112.64L86.8363 112.089L79.1824 120.068L75.88 117.639L72.8903 119.159L66.3673 109.887V109.888Z" fill="#15532E"/>
<path d="M70.4248 102.922C70.4345 104.633 70.404 106.361 70.3014 108.135C70.0364 112.708 76.0904 118.48 76.596 118.522C77.104 118.563 84.3415 112.098 86.5545 109.888C79.6859 106.087 72.4448 103.587 70.4248 102.922V102.922Z" fill="#F7A68F"/>
<path d="M87.193 109.184C87.8207 107.679 87.1734 95.8972 87.6387 95.8362C87.6558 93.2641 87.5923 90.4356 86.062 88.4571C85.2682 87.43 84.1642 86.7632 83.0479 86.2307C80.234 84.8872 76.8669 83.8467 73.882 84.6992C72.2748 85.1584 70.7629 86.3589 70.2865 88.12C70.0667 88.9322 70.0777 89.803 70.0899 90.6579C70.1534 94.8909 70.4026 98.8564 70.4245 102.921C72.4446 103.587 79.6857 106.087 86.5542 109.887C86.9243 109.518 87.1588 109.263 87.193 109.183V109.184Z" fill="#ED8A72"/>
<path d="M87.487 104.071C87.487 104.071 90.8443 106.77 91.4598 109.358C91.4855 109.467 84.6841 119.235 79.275 121.888L75.8529 119.123L72.4699 121.888C72.4699 121.888 65.4303 114.737 66.4501 107.904L70.4157 104.945C70.4157 104.945 72.7361 115.483 76.1045 116.708C76.1045 116.708 85.208 110.807 87.487 104.071V104.071Z" fill="#176535"/>
<path d="M82.4728 29.9349L78.5952 29.3926L79.3683 12.2114L86.3761 13.1921L82.4728 29.9349Z" fill="#E37712"/>
<path d="M103.638 48.4375L101.776 44.947L115.875 35.3696L119.238 41.6789L103.638 48.4375Z" fill="#E37712"/>
<path d="M95.0314 37.0588L92.2505 34.6553L98.3948 23.5415L103.42 27.8844L95.0314 37.0588Z" fill="#E37712"/>
<path d="M53.2862 39.7199L56.0207 36.8719L45.0449 23.7869L40.1035 28.9334L53.2862 39.7199Z" fill="#E37712"/>
<path d="M64.6443 31.133L67.9699 29.5832L65.062 17.2041L59.0532 20.0033L64.6443 31.133Z" fill="#E37712"/>
<path d="M99.0837 83.8456C97.2847 89.1851 93.6269 94.3463 88.2862 94.6565C87.8135 94.6834 87.3238 94.6736 86.8902 94.4721C86.3468 94.2193 85.9584 93.6978 85.6531 93.158C83.7833 89.8397 84.4367 85.603 85.5615 81.9306C86.4384 79.0667 87.5839 76.2577 89.3145 73.8713C91.0451 71.4848 93.4071 69.5344 96.1501 68.7565C98.2642 68.1568 100.519 68.1886 100.977 70.873C101.703 75.128 100.452 79.7848 99.0837 83.8444V83.8456Z" fill="#2B3340"/>
<path d="M63.8419 59.9264C64.8947 59.0862 66.3725 58.3864 67.5388 59.0618C68.5769 59.6626 68.8187 61.05 68.7821 62.2493C68.6624 66.1257 66.8194 69.7396 64.6773 72.9723C63.9763 74.0312 63.1836 75.1121 62.0259 75.636C61.05 76.0781 59.3683 76.0402 58.9433 74.8837C58.5977 73.942 58.6563 72.336 58.6331 71.3297C58.5696 68.572 59.3268 65.7997 60.7618 63.4462C61.5776 62.1089 62.6157 60.9047 63.8419 59.9264V59.9264Z" fill="#2B3340"/>
<path d="M57.623 84.4708C58.6659 86.1807 60.6041 87.2236 62.038 86.4322C65.3208 84.6174 63.4498 79.7127 61.4114 76.9232C56.8242 70.6433 54.9276 80.0546 57.623 84.4708V84.4708Z" fill="#ED8A72"/>
<path d="M90.6543 92.4484C93.7539 86.359 94.6931 76.1746 92.6364 69.5051C89.6357 59.7713 82.529 54.8837 73.4633 56.6375C65.3014 58.2154 61.646 66.8414 60.7313 75.04C60.2953 78.9518 60.3295 84.9386 62.446 90.1914C65.2244 97.0869 71.8561 103.541 75.9022 103.171C80.0058 102.928 88.2398 97.1931 90.6543 92.4496V92.4484Z" fill="#F7A68F"/>
<path d="M78.6059 46.8414C74.8663 45.7263 71.0449 44.0483 68.5742 40.708C67.9391 42.1467 67.6631 43.7845 67.7852 45.3905C66.4271 44.8287 65.1399 44.0519 63.9735 43.0895C63.849 44.3548 63.7256 45.6201 63.601 46.8853C62.3333 46.8804 61.0656 46.4225 60.03 45.5944C59.1054 49.5123 59.2129 53.6672 60.2364 57.5546C61.1475 61.0145 62.5361 65.1804 66.2171 66.4261C67.6692 66.9171 69.2288 67.0123 70.7603 66.9549C74.2984 66.823 83.5522 65.5052 85.4916 63.9774C91.8814 67.8709 92.5715 79.8347 92.6057 84.2387C95.9374 83.3887 100.297 78.2531 100.913 74.4964C102.148 66.9598 99.8589 60.0057 94.2336 55.0436C89.7332 51.0744 84.0395 48.4632 78.6059 46.8426V46.8414Z" fill="#2B3340"/>
<path d="M88.8697 82.4337C88.5632 83.7222 88.8905 85.1523 89.7051 86.0866C90.5197 87.0197 91.7947 87.4252 92.961 87.1199C96.0009 86.7364 98.5485 83.3412 98.3299 79.9667C98.2786 79.1778 98.082 78.3754 97.6093 77.8001C96.8851 76.9196 95.6467 76.7571 94.5878 77.082C93.529 77.4069 92.6032 78.1384 91.7043 78.8553L88.8709 82.435L88.8697 82.4337Z" fill="#F7A68F"/>
<path d="M83.1591 77.9599C84.1691 78.0722 85.642 78.744 85.5528 79.9494C85.5491 80.0007 85.5418 80.0532 85.5162 80.0984C85.4783 80.1619 85.4062 80.1961 85.3342 80.212C84.9544 80.2974 84.6283 79.964 84.3278 79.7173C83.3703 78.9284 81.8804 78.8734 80.8667 79.5891C80.6627 79.7332 80.4637 79.9103 80.217 79.9457C79.345 80.0715 79.6991 79.2398 80.046 78.9027C80.4172 78.5412 80.9461 78.3067 81.4309 78.1419C81.9597 77.9623 82.568 77.8952 83.1603 77.9611L83.1591 77.9599Z" fill="#231F20"/>
<path opacity="0.8" d="M81.4104 90.1058C81.2675 91.5286 80.8754 92.9246 80.2599 94.2155C79.7555 95.2719 79.0862 96.2721 78.1727 97.0037C77.2592 97.7353 76.0782 98.1798 74.9143 98.0528C73.2729 97.8733 71.9172 96.5933 71.1893 95.1107C70.4407 93.5841 69.7995 91.6324 69.8899 89.9202C71.4959 90.6493 79.0374 90.6004 81.4104 90.1058V90.1058Z" fill="#ED8A72"/>
<path d="M71.8818 84.0408C71.6485 84.4377 71.4421 84.8542 71.2406 85.2621C71.2199 85.3048 71.1979 85.35 71.2003 85.3964C71.2064 85.5344 71.3823 85.5833 71.5191 85.5955C72.352 85.6675 73.1849 85.7396 74.0179 85.8117C74.0826 85.8178 74.1583 85.8312 74.184 85.8898C74.2035 85.935 74.184 85.9875 74.1632 86.0315C73.8054 86.796 73.2448 87.7083 72.2946 87.646C71.149 87.5715 69.9351 86.0681 70.1842 84.9274C70.2611 84.5733 70.4822 84.2716 70.6971 83.9797C71.6571 82.6815 72.617 81.3832 73.577 80.085C74.0374 79.4633 74.1424 80.2975 74.0276 80.6675C73.8762 81.1597 73.5928 81.6079 73.3168 82.0391C73.0665 82.4299 72.7856 82.7914 72.4912 83.148C72.2641 83.4252 72.0626 83.7257 71.8794 84.0395L71.8818 84.0408Z" fill="#ED8A72"/>
<path d="M68.6088 77.3238C69.5749 77.4423 70.9855 78.1226 70.9085 79.3268C70.9049 79.378 70.8988 79.4306 70.8743 79.4745C70.8389 79.5368 70.7693 79.5722 70.7009 79.5869C70.3394 79.6699 70.0243 79.3353 69.7361 79.0862C68.8165 78.2923 67.3924 78.2276 66.4288 78.9359C66.2346 79.0788 66.0465 79.2535 65.8096 79.2877C64.9767 79.4074 65.3101 78.5793 65.6399 78.2447C65.9916 77.8856 66.496 77.6548 66.9576 77.4936C67.462 77.3177 68.0421 77.2542 68.6088 77.3238V77.3238Z" fill="#231F20"/>
<path d="M83.5976 72.618C84.6882 72.8256 85.708 73.4692 86.3321 74.4707C86.5348 74.7967 86.6973 75.2266 86.5312 75.5991C85.3111 74.8493 84.0385 74.0835 82.6206 74.009C81.8731 73.9699 81.1208 74.1263 80.3697 74.2154C79.8714 74.274 79.7053 73.9125 79.9227 73.4142C80.1108 72.9843 80.5285 72.8439 80.9193 72.7242C81.7693 72.4628 82.75 72.4555 83.5964 72.618H83.5976Z" fill="#231F20"/>
<path d="M68.511 71.867C67.4008 71.9061 66.2955 72.3848 65.5249 73.2788C65.2745 73.5695 65.0486 73.97 65.1548 74.3645C66.4751 73.8113 67.8502 73.2483 69.2633 73.3924C70.0083 73.4681 70.7276 73.738 71.4555 73.942C71.9392 74.0763 72.159 73.7441 72.0198 73.219C71.9001 72.7658 71.508 72.5631 71.1404 72.3848C70.3405 71.9964 69.372 71.8389 68.511 71.8694V71.867Z" fill="#231F20"/>
<path d="M110.211 179.113H44.3008V183.211H110.211V179.113Z" fill="#2B3340"/>
<path d="M31.6909 142.802L33.8526 140.996H118.589L122.433 142.802L119.264 145.815H35.709L31.6909 142.802Z" fill="#CED1DA"/>
<path d="M41.0361 170.083L44.1358 179.13H109.988L120.164 149.424L41.0361 170.083Z" fill="#DC6910"/>
<path d="M122.433 142.802H31.6909L32.0268 143.783H122.097L122.433 142.802Z" fill="#E3E8EE"/>
<path d="M32.0269 143.783L41.0364 170.083L120.164 149.424L122.098 143.783H32.0269Z" fill="#E37712"/>
<path d="M116.768 148.019H108.36C107.841 148.019 107.559 147.54 107.731 146.954C107.905 146.367 108.47 145.889 108.988 145.889H117.395C117.914 145.889 118.197 146.367 118.024 146.954C117.851 147.54 117.285 148.019 116.768 148.019Z" fill="white"/>
</svg>
