<svg width="185" height="191" viewBox="0 0 185 191" fill="none" xmlns="http://www.w3.org/2000/svg">
<path d="M93.6373 12.583H70.4926C47.404 12.583 28.687 31.3 28.687 54.3885V117.989C28.687 141.077 47.404 159.794 70.4926 159.794H93.6373C116.726 159.794 135.443 141.077 135.443 117.989V54.3885C135.443 31.3 116.726 12.583 93.6373 12.583Z" fill="#FDF2E0"/>
<path d="M90.5753 79.1417C87.2358 75.3847 87.5157 73.7803 86.5152 72.5653C83.1104 68.4375 84.8291 62.2786 84.8291 62.2786C84.8291 62.2786 74.2159 56.4018 75.1044 58.5986C75.993 60.8 74.1063 70.7626 73.3204 73.0154C72.4855 75.4104 72.1078 76.8819 70.5896 79.1837C70.1372 79.8693 91.5571 80.2471 90.5753 79.1417Z" fill="#F7A68F"/>
<path d="M73.7189 71.8488C72.6578 71.1189 68.0193 74.7942 67.5622 75.6641C67.1075 76.5316 67.8281 90.2185 69.3392 93.3061C69.8499 94.3439 70.4493 103.413 69.871 107.588C68.8355 115.046 65.5986 118.758 63.9871 126.627C61.1374 140.542 62.6351 154.596 65.1351 155.247C68.1388 156.025 92.4453 154.931 98.2847 154.159C98.9186 145.471 99.6793 152.391 98.2847 138.156C97.5478 130.647 95.8454 116.676 95.0875 110.372C94.0567 101.816 93.3548 97.884 93.581 97.2963C95.1808 93.1639 96.0646 77.1916 94.9476 76.4803C93.9168 75.825 86.3866 71.0279 85.8082 71.8022C84.1571 74.0036 75.7244 73.2294 73.7189 71.8488Z" fill="#FDF2E0"/>
<path d="M85.1545 67.0205C84.912 66.9552 84.6648 66.8783 84.4153 66.7896C84.3057 65.0429 84.5482 63.5341 84.7044 62.7832C84.8024 62.8671 84.9027 62.9534 85.0053 63.0397C85.0053 64.0122 84.8654 65.8451 85.1545 67.0205ZM83.2189 61.4142C82.3934 60.9805 81.3346 60.4348 80.2549 59.9147C80.2665 59.9147 80.2759 59.9124 80.2875 59.9124C80.5511 59.9124 80.8542 59.9334 81.2017 59.973C81.7404 60.0313 82.3584 60.6004 83.2189 61.4142Z" fill="#E2CEBB"/>
<path d="M84.4274 66.7832C82.1187 65.9693 79.5627 64.169 79.1103 62.5575C78.5763 60.6499 78.7115 59.9176 80.267 59.9083C81.3467 60.4283 82.4055 60.974 83.231 61.4078C83.6578 61.8136 84.1475 62.28 84.7166 62.7767C84.5603 63.5277 84.3178 65.0365 84.4274 66.7832Z" fill="#ED8A72"/>
<path d="M115.05 58.8625C114.466 57.1098 126.791 42.7878 126.87 40.4707C126.899 39.5561 127.888 36.1396 128.339 35.0821C129.286 32.8487 130.747 31.6359 131.854 31.9391C132.961 32.2423 135.912 34.7221 136.395 35.6194C137.585 37.8183 135.189 42.4131 131.401 45.6917C129.571 47.1806 122.074 60.9305 119.52 60.8491C116.961 60.7678 115.839 61.2388 115.05 58.8625Z" fill="#F7A68F"/>
<path d="M88.1094 72.4811C88.2607 73.9624 89.269 89.4068 88.1094 106.522C87.3772 117.331 89.4154 126.535 91.5906 126.759C93.7321 126.979 103.739 130.528 103.412 127.268C103.196 125.09 96.8627 115.633 95.9432 108.263C94.7812 98.9788 96.5915 84.9845 100.875 80.7014C104.065 77.5108 112.115 70.983 117.121 67.0673C122.984 62.4793 120.225 60.325 126.969 51.9102C126.969 51.9102 116.659 57.8583 121.01 49.4435C120.014 51.9494 117.785 52.0856 115.05 54.3932C111.86 58.962 104.137 62.3521 99.7125 66.1958C97.9983 67.6867 90.6303 71.5688 88.1094 72.4811Z" fill="#E37712"/>
<path d="M75.0008 54.5718C75.4375 56.4217 75.3717 56.5414 77.0362 60.3258C77.1489 60.5793 77.2686 60.8516 77.4001 61.1427L77.4024 61.1521C77.7545 61.9433 80.1843 64.2181 83.7574 64.9623C84.6824 65.1548 85.6824 65.2464 86.7459 65.1783C86.9196 65.1713 87.091 65.1548 87.2671 65.1361C89.6335 64.8802 89.4856 58.1261 90.0326 57.6777C90.5772 57.2293 92.2135 55.8841 91.9788 54.7854C91.7651 53.7924 90.0232 53.6562 89.3799 52.7618C88.5935 51.6725 88.6991 48.5454 86.1402 46.8176C85.227 46.2002 81.3159 44.8198 78.4213 46.7002C74.2707 49.4023 74.5336 52.5951 75.0008 54.5718Z" fill="#F7A68F"/>
<path d="M65.9587 43.8698C73.239 34.9278 86.0031 39.4048 88.4186 43.9204C90.6391 48.0676 88.1802 51.037 80.476 52.5711C76.1194 53.4381 79.1057 63.4639 73.4317 64.6729C68.4513 65.7325 63.0735 62.1779 56.2821 65.0221C50.9573 67.2546 51.7424 72.0375 49.4232 73.9449C47.1039 75.8523 44.3392 74.9107 40.3438 77.8898C37.4586 80.0452 34.4482 85.199 35.1707 88.2335C37.3575 97.4044 23.8276 96.075 31.5366 97.4597C38.1209 98.6446 39.3805 95.8486 44.7414 95.7691C50.9838 95.6728 50.3215 90.1962 51.4799 89.2426C52.6383 88.2889 57.007 90.7044 60.1378 87.9517C64.6943 83.9467 63.1409 81.9237 64.9424 79.342C66.8762 76.5676 72.3142 78.5689 70.9872 69.9688C69.8096 62.3489 57.9293 53.7343 65.9587 43.8698Z" fill="#2B3340"/>
<path d="M71.6835 72.287C72.8122 72.0841 74.2325 106.906 74.4167 108.478C74.5869 109.961 75.4428 128.105 73.3276 128.497C71.2124 128.888 67.4135 126.395 61.7956 129.15C59.4355 130.306 67.3669 111.678 67.67 106.738C67.9382 102.371 65.8277 90.5563 64.8856 91.158C62.0311 92.977 54.5662 98.6182 53.7453 101.081C53.0923 103.038 63.0922 116.997 63.1015 117.834C63.1202 119.534 54.8647 124.674 53.7453 122.622C53.4281 122.044 37.8593 103.038 40.6881 97.5991C42.2319 94.6328 58.7289 77.9562 61.5064 75.7641C63.6379 74.0827 68.976 72.7697 71.6835 72.287Z" fill="#E37712"/>
<path d="M131.098 40.4981L148.732 55.1397C152.624 55.6789 155.33 52.0785 153.464 49.3495L135.018 34.833C134.226 37.8815 133.756 39.4019 131.098 40.4981Z" fill="#D3D4D3"/>
<path d="M154.889 58.1958C154.889 58.1958 153.709 55.2271 156.233 54.128C156.764 53.8956 151.145 50.1285 151.145 50.1285L149.464 53.5469C149.464 53.5469 154.007 57.8598 154.889 58.1958Z" fill="#F4F6F5"/>
<g filter="url(#filter0_d_1587_21653)">
<mask id="path-13-inside-1_1587_21653" fill="white">
<path d="M147.629 55.3674L121.458 32.7114C121.491 29.4756 122.437 26.9419 126.762 26.5832L153.475 49.3511C150.26 47.8426 145.897 51.6432 147.629 55.3674Z"/>
</mask>
<path d="M147.629 55.3674L121.458 32.7114C121.491 29.4756 122.437 26.9419 126.762 26.5832L153.475 49.3511C150.26 47.8426 145.897 51.6432 147.629 55.3674Z" fill="white"/>
<path d="M121.458 32.7114L121.256 32.9443L121.148 32.8509L121.15 32.7083L121.458 32.7114ZM126.762 26.5832L126.736 26.2762L126.864 26.2656L126.961 26.3487L126.762 26.5832ZM153.475 49.3511L153.675 49.1167L153.344 49.63L153.475 49.3511ZM147.428 55.6003L121.256 32.9443L121.659 32.4785L147.831 55.1346L147.428 55.6003ZM121.15 32.7083C121.166 31.0715 121.412 29.5497 122.25 28.3881C123.1 27.2111 124.514 26.4605 126.736 26.2762L126.787 26.8901C124.684 27.0645 123.463 27.7601 122.75 28.7486C122.026 29.7525 121.782 31.1154 121.766 32.7146L121.15 32.7083ZM126.961 26.3487L153.675 49.1167L153.275 49.5855L126.562 26.8176L126.961 26.3487ZM153.344 49.63C151.884 48.9447 150.122 49.4532 148.91 50.619C147.705 51.7774 147.11 53.5218 147.908 55.2375L147.35 55.4973C146.416 53.4888 147.136 51.4707 148.483 50.1749C149.823 48.8865 151.851 48.2489 153.606 49.0722L153.344 49.63Z" fill="#CED0D9" mask="url(#path-13-inside-1_1587_21653)"/>
</g>
<path d="M139.101 37.0285C139.101 37.0285 133.981 40.7661 132.869 42.5731C131.193 45.2947 131.747 54.0453 132.179 53.5608C132.488 53.2123 132.686 50.5846 133.025 51.0222C133.558 51.7118 134.305 55.0564 134.656 54.9229C134.992 54.7919 133.863 47.9619 135.665 44.9758C136.73 43.2183 141.741 39.409 141.741 39.409L139.101 37.0285Z" fill="#BB3430"/>
<path d="M144.777 45.8216C143.657 46.6387 142.006 46.299 141.181 45.189C140.356 44.079 140.672 42.6195 141.791 41.8024C142.911 40.9828 144.484 41.2215 145.311 42.3315C146.133 43.4415 145.894 45.0044 144.777 45.8216Z" fill="#CA8A04"/>
<path d="M144.534 45.5462C143.427 46.3555 141.865 46.1218 141.048 45.0223C140.234 43.9228 140.47 42.3756 141.579 41.5664C142.686 40.7571 144.243 40.9908 145.06 42.0903C145.877 43.1898 145.641 44.737 144.534 45.5462Z" fill="#FACC16"/>
<path d="M144.31 45.2292C143.378 45.9098 142.069 45.7108 141.383 44.7894C140.698 43.8656 140.897 42.5659 141.828 41.8853C142.757 41.2047 144.069 41.4013 144.754 42.3251C145.44 43.2489 145.238 44.5486 144.31 45.2292Z" fill="#FACC16"/>
<path d="M144.31 45.2292C143.378 45.9098 142.069 45.7108 141.383 44.7894C140.698 43.8656 140.897 42.5659 141.828 41.8853C142.757 41.2047 144.069 41.4013 144.754 42.3251C145.44 43.2489 145.238 44.5486 144.31 45.2292Z" fill="#CA8A04"/>
<path d="M144.437 45.3473C143.505 46.0281 142.195 45.8315 141.51 44.9073C140.824 43.9832 141.026 42.6831 141.955 42.0023C142.886 41.3239 144.194 41.5205 144.879 42.4447C145.565 43.3663 145.366 44.6665 144.437 45.3473Z" fill="#FACC16"/>
<path d="M131.97 31.7653C131.869 32.6937 132.084 32.1876 131.918 33.5036C131.772 34.6592 130.839 35.4839 131.718 35.9308C132.523 36.3383 133.397 34.2691 133.313 34.5802C132.911 36.0444 131.98 36.5481 132.735 37.2025C133.377 37.7556 135.145 35.8469 135.096 36.0716C135.022 36.3926 132.318 37.3556 133.649 38.2469C134.577 38.8667 136.884 36.1259 136.728 36.3309C136.116 37.1383 134.511 38.2222 135.14 38.5408C135.54 38.7457 137.261 38.0593 137.76 37.6494C138.982 36.6444 139.543 35.521 137.587 33.9777C134.296 31.3801 132.38 30.9604 131.97 31.7653Z" fill="#F7A68F"/>
<path d="M130.243 40.1846C126.656 38.4402 129.001 33.2513 127.023 32.4728C125.397 31.8322 126.375 38.9305 126.703 39.6623C127.07 40.495 127.346 40.5764 127.373 41.966C127.397 43.1535 131.65 40.8671 130.243 40.1846Z" fill="#F7A68F"/>
<path d="M83.5426 177.25C72.3604 177.437 49.8107 172.004 50.6348 169.656C52.9532 163.049 55.1245 157.034 53.7825 147.577C53.4003 144.886 52.7334 141.916 51.7046 138.574C51.488 137.871 51.9228 137.23 52.8837 136.649C61.1324 131.671 108.149 131.266 114.67 136.097C115.299 136.563 115.552 137.078 115.355 137.643C114.63 139.722 114.14 142.029 113.835 144.447C112.692 153.503 114.146 164.109 115.557 170.103C116.027 172.1 94.7279 177.064 83.5426 177.25Z" fill="#3C404B"/>
<path d="M81.5264 153.96C76.495 153.96 65.5786 148.487 53.7838 147.579C53.5616 146.014 53.2431 144.355 52.813 142.583C64.2118 146.415 79.9892 150.371 82.0532 150.371C82.0695 150.371 82.0835 150.371 82.0975 150.37C83.8516 150.315 101.762 145.926 114.238 141.896C114.079 142.729 113.946 143.581 113.837 144.449C103.431 146.535 84.8515 153.767 81.9064 153.949C81.7839 153.956 81.657 153.96 81.5264 153.96Z" fill="#FACC16"/>
<path d="M40.9412 136.929C41.9542 140.685 79.1702 150.462 82.0937 150.369C84.7608 150.284 124.757 140.188 126.255 136.557C126.652 135.595 40.7583 136.251 40.9412 136.929Z" fill="#2B3340"/>
<path d="M81.0402 125.519L40.9975 136.811C40.916 136.835 40.9163 136.96 40.9979 136.982L81.2025 148.091C81.5987 148.201 82.0136 148.204 82.4106 148.099L126.198 136.613C126.281 136.592 126.28 136.462 126.196 136.441L82.232 125.5C81.839 125.403 81.4299 125.409 81.0402 125.519Z" fill="#2B3340"/>
<path d="M99.2665 121.574L101.291 121.902L99.1993 122.128L98.7357 124.669L98.4078 122.124L96.4717 121.811L98.3834 121.532L98.8391 118.882L99.2665 121.574Z" fill="white"/>
<path d="M69.6876 138.061C61.7587 137.298 53.7946 136.717 45.8261 136.666C44.41 136.68 42.9871 136.676 41.5904 136.888C41.4209 136.918 41.2575 136.952 41.1005 137.009L41.0893 137.013C41.0861 137.014 41.079 137.017 41.0853 137.014C41.0956 137.011 41.1044 136.999 41.0937 137.013C41.016 137.167 40.9922 137.378 40.9688 137.561C40.8285 139.113 40.9008 140.675 40.9246 142.235C41.0926 147.934 41.4445 153.626 41.5581 159.328C41.5824 160.474 41.591 161.619 41.5849 162.766C41.5836 163.077 41.3311 163.327 41.021 163.326C40.7109 163.325 40.4606 163.072 40.4619 162.762C40.6574 160.492 40.7212 158.201 40.7517 155.91C40.7846 152.494 40.7238 149.077 40.6439 145.662C40.6238 143.292 40.4702 140.301 40.6097 137.957C40.6338 137.66 40.6549 137.375 40.7298 137.081C40.7575 136.982 40.7977 136.846 40.8982 136.762C40.914 136.749 40.9321 136.736 40.9553 136.726C40.9695 136.72 40.9711 136.72 40.9762 136.718C41.1576 136.65 41.3502 136.608 41.5351 136.575C42.9553 136.354 44.3925 136.358 45.8239 136.329C49.2454 136.303 52.6665 136.4 56.0859 136.493C60.6449 136.63 65.1998 136.802 69.7636 136.941C70.0736 136.951 70.3172 137.21 70.3076 137.52C70.2993 137.844 70.0102 138.096 69.6876 138.061Z" fill="#FACC16"/>
<path d="M95.1786 136.622H69.2767C68.812 136.622 68.4351 136.999 68.4351 137.464C68.4351 137.928 68.812 138.305 69.2767 138.305H95.1786C95.6438 138.305 96.0202 137.928 96.0202 137.464C96.0202 136.999 95.6438 136.622 95.1786 136.622Z" fill="#100F0D"/>
<path d="M93.7917 128.009C93.7917 134.515 88.5167 139.789 82.0111 139.789C80.3947 139.789 78.8548 139.464 77.4533 138.875C75.1184 137.895 73.1669 136.185 71.8837 134.029C70.8338 132.268 70.2305 130.209 70.2305 128.009C70.2305 121.502 75.5049 116.228 82.0111 116.228C84.2113 116.228 86.27 116.831 88.0322 117.881C90.1864 119.165 91.8972 121.117 92.8772 123.451C93.4659 124.854 93.7917 126.393 93.7917 128.009Z" fill="#FACC16"/>
<path d="M96.0386 128.01C96.0386 135.755 89.7595 142.034 82.0142 142.034C74.2683 142.034 67.9897 135.755 67.9897 128.01C67.9897 120.264 74.2683 113.986 82.0142 113.986C89.7595 113.986 96.0386 120.264 96.0386 128.01Z" fill="#FACC16"/>
<path d="M86.5924 117.153L86.1429 117.603L71.5717 132.173L71.1557 132.589C70.577 131.221 70.2497 129.719 70.2329 128.143L82.1452 116.23C83.7216 116.247 85.2225 116.574 86.5924 117.153Z" fill="#FACC16"/>
<path d="M93.7761 127.362V127.363L92.9903 128.147L82.4482 138.69L81.3655 139.773C80.5424 139.728 79.7414 139.599 78.9722 139.394L79.7187 138.647L92.9481 125.419L93.397 124.97C93.6021 125.739 93.7313 126.539 93.7761 127.362Z" fill="#FACC16"/>
<path d="M92.8787 123.45L77.4547 138.874C75.12 137.894 73.1687 136.184 71.8857 134.029L88.0338 117.881C90.1883 119.164 91.8986 121.116 92.8787 123.45Z" fill="#FACC16"/>
<path d="M90.9244 120.307C89.5839 119.058 87.9525 118.119 86.1422 117.603C85.1122 117.308 84.0242 117.15 82.8997 117.15C82.2827 117.15 81.6765 117.198 81.0852 117.289C76.0318 118.07 72.0389 122.063 71.2579 127.116C71.1669 127.708 71.1191 128.314 71.1191 128.931C71.1191 130.055 71.2765 131.143 71.5709 132.173C72.0473 133.841 72.8815 135.357 73.9857 136.633C72.778 135.508 71.8061 134.133 71.155 132.589C70.5763 131.221 70.2489 129.719 70.2322 128.143C70.231 128.098 70.231 128.054 70.231 128.01C70.231 121.503 75.5052 116.229 82.0116 116.229C82.0559 116.229 82.1002 116.229 82.1445 116.23C83.7208 116.247 85.2217 116.574 86.5916 117.153C88.2703 117.862 89.7497 118.948 90.9244 120.307Z" fill="#CA8A04"/>
<path d="M81.9889 139.789C81.7782 139.789 81.5687 139.783 81.3605 139.772C81.2698 139.767 81.1804 139.761 81.0903 139.754C81.1804 139.761 81.2698 139.767 81.3605 139.772C81.5687 139.783 81.7782 139.789 81.9889 139.789ZM93.7885 127.99C93.7879 127.779 93.7818 127.569 93.7708 127.362L93.7714 127.361V127.361V127.361C93.7824 127.569 93.7879 127.779 93.7885 127.99ZM93.3916 124.969C93.2538 124.448 93.0792 123.941 92.874 123.451C92.6431 122.902 92.3724 122.375 92.0649 121.871C92.6474 122.823 93.0976 123.864 93.3922 124.968L93.3916 124.969Z" fill="white"/>
<path d="M82.0065 139.789C81.9998 139.789 81.993 139.789 81.9875 139.789C81.7768 139.789 81.5673 139.783 81.3591 139.772L82.442 138.688C88.0062 138.135 92.431 133.711 92.9841 128.146L93.7694 127.362C93.7804 127.569 93.7865 127.779 93.7871 127.99C93.7871 127.996 93.7871 128.002 93.7871 128.009C93.7871 134.515 88.5121 139.789 82.0065 139.789ZM81.089 139.754C80.3607 139.698 79.6507 139.575 78.9659 139.393C78.4453 139.254 77.9387 139.081 77.4487 138.875L78.027 138.297C78.5733 138.453 79.1362 138.571 79.7126 138.646L78.9659 139.393C79.6507 139.575 80.3607 139.698 81.089 139.754ZM92.9413 125.418C92.8653 124.841 92.7483 124.278 92.5927 123.731L92.8727 123.451C92.6417 122.902 92.371 122.375 92.0635 121.871C92.371 122.375 92.6417 122.902 92.8727 123.451C93.0778 123.941 93.2524 124.448 93.3902 124.969L92.9413 125.418Z" fill="#F6DC92"/>
<path d="M81.3645 139.772C81.2739 139.767 81.1838 139.761 81.0944 139.754C80.3663 139.698 79.6565 139.575 78.9712 139.393L79.7177 138.646C80.2248 138.713 80.7423 138.747 81.2671 138.747C81.6652 138.747 82.0596 138.727 82.4473 138.689L81.3645 139.772ZM92.9894 128.146C93.0279 127.758 93.0481 127.365 93.0481 126.967C93.0481 126.441 93.0132 125.924 92.9471 125.418L93.3954 124.968H93.396C93.6012 125.738 93.7304 126.538 93.7751 127.361V127.362H93.7745L92.9894 128.146Z" fill="white"/>
<path d="M92.0627 121.862C92.0627 121.861 92.0616 121.859 92.0605 121.858C92.0616 121.859 92.0627 121.861 92.0627 121.862Z" fill="white"/>
<path d="M77.4518 138.874C75.9164 138.229 74.546 137.268 73.422 136.071C73.6028 136.264 73.7904 136.451 73.984 136.631C73.655 136.251 73.3503 135.85 73.0718 135.43C74.4452 136.759 76.1403 137.758 78.0296 138.296L77.4518 138.874ZM73.422 136.071C73.4183 136.067 73.4141 136.063 73.4104 136.059C73.4141 136.063 73.4177 136.067 73.422 136.071ZM73.4074 136.056C73.4044 136.053 73.4013 136.05 73.3983 136.047C73.4013 136.05 73.4044 136.053 73.4074 136.056ZM73.3934 136.041C73.3916 136.039 73.3892 136.037 73.388 136.035C73.3892 136.037 73.3916 136.039 73.3934 136.041ZM92.596 123.73C92.2829 122.632 91.8155 121.601 91.2177 120.659C91.5224 121.04 91.8034 121.441 92.0595 121.858C92.0601 121.86 92.0607 121.86 92.0607 121.861C92.0625 121.864 92.065 121.867 92.0668 121.87C92.3745 122.373 92.6446 122.901 92.8758 123.45L92.596 123.73Z" fill="white"/>
<path d="M73.9842 136.632C73.7909 136.452 73.6036 136.265 73.4223 136.072C73.4181 136.068 73.4145 136.064 73.4109 136.06C73.4097 136.059 73.4085 136.058 73.4079 136.057C73.4049 136.054 73.4019 136.051 73.3989 136.048C73.3971 136.046 73.3959 136.044 73.3941 136.042C73.3923 136.04 73.3899 136.038 73.3881 136.036C73.3858 136.033 73.3834 136.031 73.381 136.028C72.8902 135.5 72.4474 134.927 72.0596 134.316C72.3732 134.709 72.7119 135.081 73.0722 135.431C73.351 135.851 73.6557 136.252 73.9842 136.632Z" fill="#F1BC7D"/>
<path d="M58.4842 113.68C58.9366 113.913 60.9259 120.48 64.3656 121.131C66.7817 121.588 69.9463 121.704 68.0106 122.381C66.7047 122.838 66.3899 123.684 66.9892 124.591C68.2998 126.576 74.4098 128.11 73.2345 129.731C72.4975 130.746 69.3446 128.276 68.3884 127.84C69.818 128.63 73.7102 131.005 72.7074 131.93C71.6673 132.889 67.7658 130.484 66.8656 129.449C68.0736 130.45 71.3362 131.912 70.5246 132.826C69.3446 134.157 66.2849 130.813 65.1702 129.964C66.0774 130.804 67.9943 132.716 67.7821 133.024C67.1781 133.906 62.3741 130.853 60.2496 128.472C59.1185 127.203 58.8783 126.035 58.1204 124.862C55.7627 121.222 52.6237 119.766 53.237 119.02C55.0421 116.823 56.8424 112.828 58.4842 113.68Z" fill="#F7A68F"/>
<path d="M95.1907 144.759H69.2812V138.32H95.1907V144.759Z" fill="#2B3340"/>
<path d="M67.3365 130.209L69.1044 130.122L67.3796 130.689L67.4443 132.917L66.7106 130.827L65.0205 130.911L66.5843 130.332L66.4927 128.014L67.3365 130.209Z" fill="white"/>
<path d="M41.0273 166.179C41.0583 166.571 40.9788 166.952 40.8829 167.328C40.6769 168.094 40.3348 168.812 39.949 169.501C39.9055 169.571 39.7825 169.783 39.737 169.858C39.4527 170.356 38.9957 170.757 38.5341 171.075C37.3065 171.905 35.8993 172.386 34.5558 172.969C34.0218 173.216 32.6733 173.739 32.5997 174.355C32.6905 175.525 34.6521 176.402 35.6356 176.765C35.8013 176.826 35.9738 176.885 36.1355 176.933C36.2862 176.976 36.3732 177.134 36.3279 177.284C36.2831 177.434 36.1234 177.519 35.9743 177.471C35.7879 177.412 35.6168 177.349 35.4414 177.282C34.5655 176.938 33.7112 176.525 32.9903 175.902C32.497 175.47 31.8682 174.663 32.2191 173.966C32.6532 173.112 34.5126 172.513 35.3913 172.133C36.6808 171.593 38.3835 170.98 39.2515 169.86C39.5969 169.35 39.9066 168.791 40.1641 168.231C40.4381 167.592 40.7021 166.915 40.6857 166.213C40.67 165.994 40.9956 165.954 41.0273 166.179Z" fill="#FEF18B"/>
<path d="M41.4056 166.244C41.8978 167.407 42.3678 168.886 42.1635 170.157C42.0976 170.54 41.9314 170.946 41.6402 171.238C41.5555 171.327 41.4637 171.421 41.3759 171.506C40.7841 172.088 40.0894 172.565 39.3989 173.014C38.6986 173.485 37.9754 173.923 38.2825 174.876C38.6096 175.718 39.8135 176.268 40.6123 176.609C41.2004 176.848 41.8213 177.053 42.4338 177.21C42.5864 177.246 42.6808 177.401 42.6422 177.553C42.604 177.704 42.4486 177.795 42.2977 177.755C41.6462 177.578 41.0257 177.362 40.4064 177.101C39.421 176.665 37.9323 175.938 37.7556 174.754C37.5768 173.68 38.3645 173.139 39.154 172.639C39.9694 172.128 40.7693 171.585 41.4225 170.876C42.16 169.983 41.7414 168.305 41.426 167.287C41.3272 166.981 41.2153 166.673 41.0906 166.381C41.0069 166.178 41.3062 166.036 41.4056 166.244Z" fill="#FEF18B"/>
<path d="M41.1802 166.574C41.7261 167.851 41.3356 169.376 40.4483 170.395C40.1283 170.781 39.7476 171.115 39.3515 171.415C38.7119 171.911 38.0282 172.369 37.388 172.847C36.9123 173.212 36.391 173.613 36.1472 174.157C35.6355 175.436 36.8523 176.305 37.8536 176.832C38.2709 177.051 38.7096 177.239 39.154 177.399C39.3029 177.453 39.4575 177.506 39.6023 177.549C39.7507 177.593 39.8349 177.75 39.7904 177.898C39.7459 178.046 39.5895 178.131 39.4412 178.086C39.2737 178.033 39.1198 177.978 38.9622 177.918C38.496 177.741 38.0426 177.539 37.6033 177.3C36.7666 176.828 35.8092 176.187 35.593 175.179C35.5128 174.779 35.5428 174.34 35.7172 173.966C36.0196 173.318 36.5808 172.897 37.1242 172.491C37.7888 172.01 38.4573 171.576 39.1044 171.089C40.3854 170.186 41.3537 168.768 41.0009 167.149C40.9695 167.003 40.9258 166.852 40.8675 166.717C40.7802 166.514 41.0781 166.369 41.1802 166.574Z" fill="#FEF18B"/>
<path d="M40.788 165.271C41.299 166.633 41.9488 168.81 41.4651 170.224C41.2809 170.794 40.7662 171.168 40.3029 171.501C39.3949 172.143 38.4419 172.686 37.6012 173.399C37.1505 173.803 36.5167 174.383 36.6788 175.03C37.0738 176.3 39.9888 177.143 41.2001 177.432C41.5613 177.52 41.4494 178.051 41.0794 177.98C40.7059 177.887 40.3493 177.78 39.9897 177.663C37.8259 176.951 34.4207 175.42 37.3398 173.089C38.2042 172.382 39.1966 171.839 40.1081 171.222C40.3962 171.022 40.7015 170.81 40.928 170.549C41.5502 169.768 41.3533 168.39 41.1838 167.46C41.0419 166.744 40.8414 166.032 40.5926 165.347C40.5711 165.293 40.5988 165.23 40.654 165.211C40.7077 165.191 40.7672 165.218 40.788 165.271Z" fill="#FACC16"/>
<path d="M40.8456 166.677C41.1528 167.91 40.9499 169.507 39.9672 170.393C39.4582 170.814 38.8955 171.124 38.3356 171.457C37.5123 171.941 36.6795 172.402 35.9303 172.986C35.4821 173.356 34.8163 173.909 35.0158 174.527C35.1624 175.034 35.476 175.467 35.8191 175.869C36.2271 176.338 36.6963 176.758 37.1852 177.144C37.4277 177.335 37.6861 177.526 37.9405 177.695C38.0722 177.779 38.1098 177.955 38.0236 178.086C37.9383 178.215 37.7643 178.251 37.635 178.166C37.4925 178.067 37.3624 177.97 37.2301 177.868C36.5819 177.367 35.9697 176.819 35.4434 176.187C34.963 175.595 34.2589 174.572 34.649 173.794C35.3691 172.308 38.4387 171.204 39.7578 170.144C40.4508 169.541 40.7295 168.553 40.7366 167.658C40.7374 167.348 40.7102 167.026 40.642 166.728C40.6117 166.601 40.8055 166.54 40.8456 166.677Z" fill="#FACC16"/>
<path d="M41.451 166.318C42.1332 167.528 43.1896 169.808 42.4144 171.133C42.2256 171.439 41.9608 171.666 41.6877 171.882C41.1534 172.296 40.5864 172.636 40.0815 173.037C39.6247 173.404 39.1193 173.872 39.0973 174.474C39.0243 175.782 41.6741 176.637 42.7195 176.96C43.0298 177.052 43.3481 177.138 43.657 177.209C43.8101 177.241 43.9075 177.393 43.8724 177.546C43.8376 177.699 43.683 177.794 43.5309 177.756C42.8727 177.589 42.242 177.386 41.6109 177.143C40.6273 176.747 39.1198 176.094 38.731 175.025C38.4123 174.053 39.1176 173.257 39.844 172.728C40.5154 172.219 41.2412 171.858 41.8516 171.312C42.2104 171.002 42.3745 170.578 42.3938 170.101C42.4222 169.463 42.2617 168.819 42.0599 168.212C41.85 167.597 41.5816 166.993 41.2698 166.424C41.2035 166.311 41.3731 166.194 41.451 166.318Z" fill="#FACC16"/>
<path d="M43.3541 163.587C43.3541 165.314 42.3023 166.715 41.0047 166.715C40.4494 166.715 39.9389 166.459 39.5367 166.029C38.9993 165.456 38.6548 164.575 38.6548 163.587C38.6548 161.859 39.7072 160.458 41.0047 160.458C41.9455 160.458 42.7572 161.195 43.1319 162.259C43.2745 162.661 43.3541 163.111 43.3541 163.587Z" fill="#FACC16"/>
<path d="M41.0027 166.715C40.9524 166.715 40.9024 166.713 40.8528 166.709C40.7812 166.703 40.7104 166.693 40.6407 166.678C40.2264 166.593 39.8477 166.363 39.5347 166.029C39.8654 166.135 40.1499 166.183 40.4005 166.183C41.2566 166.183 41.7183 165.633 42.2885 165.011C42.9145 164.328 43.062 163.167 43.1299 162.259C43.2725 162.661 43.3521 163.111 43.3521 163.587C43.3521 165.035 42.613 166.254 41.6095 166.61C41.5406 166.635 41.4705 166.655 41.3993 166.671C41.3517 166.682 41.3038 166.691 41.2553 166.697C41.1756 166.709 41.0945 166.715 41.0126 166.715C41.0093 166.715 41.006 166.715 41.0027 166.715Z" fill="#DB9641"/>
<defs>
<filter id="filter0_d_1587_21653" x="117.078" y="24.3933" width="40.7774" height="37.544" filterUnits="userSpaceOnUse" color-interpolation-filters="sRGB">
<feFlood flood-opacity="0" result="BackgroundImageFix"/>
<feColorMatrix in="SourceAlpha" type="matrix" values="0 0 0 0 0 0 0 0 0 0 0 0 0 0 0 0 0 0 127 0" result="hardAlpha"/>
<feOffset dy="2.18996"/>
<feGaussianBlur stdDeviation="2.18996"/>
<feComposite in2="hardAlpha" operator="out"/>
<feColorMatrix type="matrix" values="0 0 0 0 0.215686 0 0 0 0 0.254902 0 0 0 0 0.317647 0 0 0 0.1 0"/>
<feBlend mode="normal" in2="BackgroundImageFix" result="effect1_dropShadow_1587_21653"/>
<feBlend mode="normal" in="SourceGraphic" in2="effect1_dropShadow_1587_21653" result="shape"/>
</filter>
</defs>
</svg>
