<svg width="157" height="198" viewBox="0 0 157 198" fill="none" xmlns="http://www.w3.org/2000/svg">
<path d="M98.9652 29H74.213C49.5208 29 29.5039 47.717 29.5039 70.8055V134.406C29.5039 157.494 49.5208 176.211 74.213 176.211H98.9652C123.657 176.211 143.674 157.494 143.674 134.406V70.8055C143.674 47.717 123.657 29 98.9652 29Z" fill="#FDF2E0"/>
<path d="M103.564 138.523C103.096 136.596 101.299 135.729 99.7205 135.729C99.7205 135.729 99.7205 135.729 99.716 135.729C98.1419 135.729 96.3404 136.592 95.8722 138.518C95.3505 140.67 96.7596 142.492 98.0349 143.639C98.5076 144.064 99.114 144.277 99.7205 144.277C100.327 144.277 100.933 144.064 101.402 143.639C102.677 142.492 104.086 140.674 103.564 138.523ZM99.7205 140.612C98.9446 140.612 98.3158 140.024 98.3158 139.298C98.3158 138.573 98.9446 137.985 99.7205 137.985C100.496 137.985 101.125 138.573 101.125 139.298C101.125 140.024 100.496 140.612 99.7205 140.612Z" fill="#008744"/>
<rect x="94.5781" y="135.208" width="10.285" height="9.59" stroke="#FDF2E0" stroke-width="0.416957"/>
<g filter="url(#filter0_f_1555_22476)">
<path d="M67.872 80.7538L34.0569 88.6585C29.5237 89.7182 24.9357 86.5321 24.2528 81.9973C23.1724 74.8223 21.2899 64.6693 18.4887 57.3783C16.1658 51.3321 11.9782 44.045 8.44767 38.3774C5.62806 33.8511 8.02489 27.9626 13.2564 26.9536L39.9805 21.7994C42.9688 21.2231 46.0769 22.4595 47.8148 24.9687C51.5443 30.3536 58.0333 40.0036 62.1537 47.709C65.7996 54.5273 70.0514 64.4242 72.8592 71.2246C74.5456 75.3091 72.195 79.7432 67.872 80.7538Z" fill="#E0E0E0"/>
</g>
<path d="M70.536 78.2621L36.721 86.1668C32.1877 87.2265 27.5997 84.0404 26.9169 79.5056C25.8365 72.3306 23.954 62.1776 21.1528 54.8866C18.8299 48.8404 14.6423 41.5533 11.1117 35.8857C8.29212 31.3594 10.689 25.4709 15.9204 24.4619L42.6445 19.3077C45.6328 18.7314 48.741 19.9678 50.4788 22.477C54.2084 27.8619 60.6974 37.5119 64.8178 45.2173C68.4637 52.0356 72.7154 61.9325 75.5232 68.7329C77.2097 72.8174 74.8591 77.2515 70.536 78.2621Z" fill="#FDF2E0" stroke="#E37712" stroke-width="1.24576"/>
<path d="M29.1248 28.6938C28.8251 28.6755 28.561 28.474 28.4936 28.1848C28.4112 27.8377 28.6525 27.4926 29.0235 27.4191L44.9756 24.2008C45.3541 24.1278 45.7159 24.3494 45.7945 24.6963C45.8769 25.0434 45.6356 25.3886 44.8852 25.4389L28.9331 28.6571C29.2468 28.6941 29.1856 28.6975 29.121 28.6936L29.1248 28.6938Z" fill="#E37712"/>
<path d="M25.825 50.4194C25.2979 50.3872 24.834 50.0269 24.7161 49.509C24.5719 48.8873 24.9972 48.2686 25.6497 48.1362L53.7101 42.3392C54.376 42.2076 55.0116 42.604 55.1491 43.2252C55.2933 43.8468 54.868 44.4655 53.5482 44.5572L25.4879 50.3541C26.0394 50.4198 25.9318 50.4259 25.8184 50.419L25.825 50.4194Z" fill="#E37712"/>
<path d="M15.975 31.6996C15.6753 31.6813 15.4112 31.4798 15.3438 31.1906C15.2613 30.8435 15.5027 30.4984 15.8737 30.4249L24.8786 28.6095C24.961 28.9566 24.8786 28.6095 25.2761 29.3085L27.9407 37.4059L19.9469 39.8975L15.7833 31.6629C16.097 31.6999 16.0358 31.7033 15.9712 31.6994L15.975 31.6996Z" fill="#E37712"/>
<path d="M30.8153 32.8372C30.5157 32.8173 30.2528 32.6145 30.1871 32.3249C30.1068 31.9774 30.3502 31.6335 30.7216 31.562L46.6928 28.4275C47.0721 28.3529 47.4322 28.58 47.5088 28.9273C47.5891 29.2749 47.3457 29.6187 46.5949 29.6651L30.6238 32.7995C30.9372 32.8382 30.876 32.8412 30.8115 32.837L30.8153 32.8372Z" fill="#E37712"/>
<path d="M27.4967 54.564C26.9776 54.5295 26.5245 54.1493 26.4141 53.6033C26.279 52.948 26.7049 52.2963 27.3494 52.1573L55.0645 46.0743C55.7227 45.9295 56.3441 46.3546 56.4726 47.0095C56.6077 47.6648 56.1818 48.3165 54.8803 48.4118L27.1652 54.4948C27.708 54.5645 27.6018 54.571 27.4901 54.5635L27.4967 54.564Z" fill="#E37712"/>
<path d="M32.4487 36.5159C32.1494 36.4919 31.8898 36.2854 31.8287 35.995C31.7539 35.6464 32.0027 35.3059 31.9963 35.2091L48.0192 32.2964C48.7785 32.2575 49.135 32.4896 49.206 32.8379C49.2808 33.1865 49.032 33.527 48.6595 33.5934L32.6366 36.506C32.5706 36.5186 32.5055 36.5205 32.4449 36.5156L32.4487 36.5159Z" fill="#E37712"/>
<path d="M28.7451 58.2186C28.3938 58.1904 28.0921 57.9143 28.0251 57.5216C27.943 57.0501 28.2412 56.585 28.2353 56.4538L47.1149 52.2719C48.0079 52.2081 48.423 52.5174 48.5007 52.9885C48.5828 53.46 48.2847 53.9251 47.8458 54.0206L28.9662 58.2025C28.8884 58.2205 28.8119 58.224 28.7407 58.2183L28.7451 58.2186Z" fill="#E37712"/>
<g filter="url(#filter1_d_1555_22476)">
<rect x="0.260334" y="0.146598" width="45.8468" height="16.3874" rx="3.08662" transform="matrix(0.970017 -0.243036 0.295126 0.955458 29.9035 64.914)" fill="#F0FDF4" stroke="#008744" stroke-width="0.411549"/>
<path d="M39.029 73.1893L39.0748 72.0942L40.7243 71.681L41.3915 72.5974L42.2071 72.3931L39.2682 68.4423L38.4767 68.6406L38.2254 73.3907L39.029 73.1893ZM39.1735 69.8638C39.1791 69.7342 39.1749 69.5942 39.1673 69.5063C39.2069 69.5925 39.2897 69.7129 39.3608 69.8169L40.3022 71.0942L39.1059 71.394L39.1735 69.8638ZM44.0918 70.3051C44.9739 70.084 45.372 69.3495 45.1128 68.5104C44.8499 67.6593 44.0994 67.2318 43.2112 67.4543L41.4651 67.8918L42.8089 72.2423L43.5823 72.0485L43.119 70.5488L44.0918 70.3051ZM43.2698 68.1706C43.7833 68.042 44.1542 68.2312 44.3013 68.7073C44.4484 69.1834 44.2508 69.5343 43.7191 69.6675L42.9095 69.8703L42.448 68.3765L43.2698 68.1706ZM47.9986 69.3262C48.8807 69.1052 49.2788 68.3707 49.0196 67.5315C48.7567 66.6805 48.0062 66.253 47.1181 66.4755L45.3719 66.913L46.7157 71.2635L47.4891 71.0697L47.0258 69.5699L47.9986 69.3262ZM47.1766 67.1918C47.6901 67.0631 48.061 67.2523 48.2081 67.7284C48.3552 68.2045 48.1576 68.5554 47.6259 68.6886L46.8163 68.8915L46.3548 67.3977L47.1766 67.1918ZM51.3959 70.0908L50.894 68.4661L51.8426 68.2284L53.0937 69.6655L53.9396 69.4535L52.5482 67.8785C53.0035 67.54 53.1528 67.0538 52.9726 66.4706C52.7079 65.6136 51.9674 65.2605 50.9644 65.5118L49.2787 65.9342L50.6225 70.2846L51.3959 70.0908ZM50.2616 66.4188L51.174 66.1903C51.6634 66.0676 52.0288 66.239 52.163 66.6734C52.299 67.1138 52.0881 67.4424 51.5986 67.565L50.6863 67.7936L50.2616 66.4188ZM58.0635 66.0735C57.6536 64.7463 56.4865 64.0449 55.2237 64.3613C53.961 64.6777 53.3716 65.8256 53.7797 67.1468C54.1897 68.474 55.3447 69.1784 56.6074 68.862C57.8763 68.5441 58.4716 67.3947 58.0635 66.0735ZM57.2479 66.2779C57.531 67.1944 57.197 67.9257 56.3874 68.1285C55.5777 68.3314 54.8761 67.8724 54.5894 66.9439C54.3026 66.0155 54.6402 65.2962 55.4499 65.0933C56.2595 64.8905 56.9611 65.3494 57.2479 66.2779ZM60.5244 67.8037L61.3219 67.6039L61.6216 62.8417L60.818 63.043L60.6373 65.7877C60.6207 66.0291 60.6128 66.3196 60.6217 66.7278C60.4165 66.4009 60.2529 66.1662 60.0754 65.9285L58.3347 63.6652L57.513 63.8711L60.5244 67.8037ZM66.3074 66.3548L66.0905 65.6525L64.1208 66.146L63.7641 64.9915L65.5284 64.5494L65.3207 63.8769L63.5564 64.319L63.2108 63.2001L65.1805 62.7066L64.9636 62.0043L62.2205 62.6916L63.5643 67.0421L66.3074 66.3548ZM68.7828 65.7346C70.0638 65.4137 70.672 64.3059 70.2768 63.0263C69.876 61.7289 68.7018 61.0677 67.3968 61.3947L65.85 61.7823L67.1938 66.1327L68.7828 65.7346ZM67.5412 62.1151C68.4535 61.8866 69.1761 62.3082 69.4611 63.2307C69.7405 64.1353 69.3756 64.8295 68.4934 65.0505L67.7502 65.2367L66.8403 62.2908L67.5412 62.1151Z" fill="#008744"/>
</g>
<path d="M63.8212 115.893C63.8212 115.893 60.1574 117.824 58.7559 119.839C57.3544 121.853 48.6671 148.464 48.6671 148.464C47.837 146.471 47.3169 143.809 46.9144 140.892L38.6217 141.057C38.6217 141.057 37.3584 149.956 37.3584 151.97C37.3584 153.985 37.2689 172.793 45.2094 173.945C53.1503 175.096 59.6901 163.728 60.9357 159.986C62.1813 156.245 66.8524 145.917 66.8524 145.917L63.8212 115.893Z" fill="#F7A68F"/>
<path d="M46.3728 122.012C46.4699 121.429 46.2488 120.827 45.7556 120.453C45.4075 120.189 44.9222 119.98 44.2743 120.022C42.6731 120.123 39.4703 122.726 38.2003 123.083C36.9303 123.441 35.7709 124.563 35.9362 125.941C36.1018 127.319 38.2554 135.995 38.2554 135.995V143.344H46.483L46.8697 141.098C46.8697 141.098 48.3053 139.516 48.7471 138.342C49.1889 137.169 48.7471 133.29 48.7471 133.29L50.5143 132.831C50.5143 132.831 51.6737 131.606 52.005 130.483C52.3366 129.36 51.8394 128.442 50.6245 128.544C50.6245 128.544 51.0663 126.656 50.9007 126.146C50.735 125.635 50.2932 124.972 48.8022 125.227C48.8022 125.227 49.5752 123.032 48.5815 122.318C47.5877 121.603 46.3728 122.012 46.3728 122.012Z" fill="#F7A68F"/>
<path d="M46.3489 129.756C46.3298 129.712 47.2625 129.331 48.4647 128.995C49.666 128.656 50.6703 128.492 50.6812 128.538C50.6935 128.589 49.7148 128.83 48.5212 129.167C47.3277 129.501 46.3692 129.804 46.3489 129.756Z" fill="#ED8A72"/>
<path d="M44.7571 126.192C44.7478 126.169 44.9685 126.067 45.3335 125.92C45.6988 125.774 46.2066 125.575 46.7957 125.415C47.3862 125.255 47.9431 125.193 48.3429 125.177C48.7439 125.163 48.9912 125.184 48.992 125.207C48.9961 125.269 48.0034 125.277 46.85 125.587C46.2744 125.744 45.761 125.924 45.3829 126.039C45.0056 126.156 44.7665 126.215 44.7571 126.192Z" fill="#ED8A72"/>
<path d="M37.5138 126.793C37.5044 126.794 37.4759 126.647 37.528 126.385C37.5794 126.126 37.7296 125.753 38.0556 125.383C38.3787 125.01 38.8737 124.665 39.4553 124.359C40.0365 124.053 40.6889 123.742 41.3915 123.448C42.7979 122.861 44.1319 122.467 45.1096 122.239C45.5982 122.122 45.9984 122.047 46.2754 121.999C46.5538 121.955 46.7082 121.936 46.7108 121.948C46.7138 121.961 46.5643 122.002 46.2922 122.068C46.0209 122.136 45.6271 122.23 45.1459 122.362C44.1825 122.62 42.8668 123.031 41.4717 123.612C40.0972 124.214 38.8066 124.765 38.1613 125.465C37.8364 125.809 37.6738 126.156 37.6018 126.401C37.5295 126.648 37.531 126.794 37.5138 126.793Z" fill="#ED8A72"/>
<path d="M41.2384 130.479C41.2279 130.495 40.9925 130.366 40.7621 130.03C40.5339 129.705 40.3394 129.14 40.4938 128.537C40.6527 127.935 41.1035 127.514 41.4673 127.32C41.8376 127.118 42.11 127.102 42.1119 127.12C42.1216 127.15 41.8702 127.21 41.543 127.427C41.2196 127.636 40.8265 128.035 40.6834 128.579C40.5436 129.124 40.6969 129.645 40.8824 129.967C41.0671 130.297 41.2616 130.457 41.2384 130.479Z" fill="#ED8A72"/>
<path d="M44.8567 133.309C44.8432 133.324 44.6476 133.202 44.452 132.908C44.2572 132.62 44.0859 132.138 44.1788 131.608C44.274 131.078 44.603 130.672 44.8871 130.457C45.1741 130.236 45.4012 130.178 45.4087 130.196C45.4241 130.222 45.2255 130.32 44.9808 130.55C44.7376 130.776 44.4573 131.158 44.3715 131.637C44.2871 132.117 44.4205 132.562 44.5734 132.847C44.7252 133.138 44.88 133.288 44.8567 133.309Z" fill="#ED8A72"/>
<path d="M47.1668 141.136C47.1736 141.136 47.1841 141.227 47.1983 141.402C47.2156 141.575 47.2234 141.833 47.2579 142.162C47.3216 142.822 47.4423 143.775 47.6907 144.936C48.1805 147.258 49.2331 150.407 50.9531 153.653C51.8337 155.264 52.7065 156.8 53.3218 158.269C53.9585 159.729 54.3519 161.111 54.5277 162.292C54.7079 163.474 54.6483 164.449 54.5412 165.106C54.5067 165.437 54.4254 165.687 54.389 165.858C54.3471 166.029 54.3219 166.118 54.3152 166.116C54.3088 166.115 54.3212 166.023 54.3508 165.851C54.3744 165.678 54.443 165.428 54.4658 165.097C54.5494 164.443 54.5869 163.478 54.3909 162.31C54.1994 161.143 53.7962 159.777 53.1547 158.33C52.5334 156.873 51.6632 155.352 50.7777 153.732C49.0499 150.471 48.0122 147.299 47.5554 144.96C47.3231 143.79 47.2227 142.831 47.1822 142.167C47.1593 141.836 47.1638 141.577 47.159 141.403C47.1578 141.228 47.1601 141.136 47.1668 141.136Z" fill="#FF9173"/>
<path d="M63.8213 115.893L81.3887 110.294L102.636 110.097C103.008 110.097 126.094 117.386 127.586 118.19C129.078 118.995 122.315 144.164 122.315 144.164L125.473 179.303C125.473 179.303 130.809 190.648 126.353 194.001H122.193L68.58 193.943C68.4739 186.545 70.9063 167.012 70.9063 167.012L65.81 145.645L63.8213 115.893Z" fill="#E37712"/>
<g opacity="0.300003">
<path d="M82.2579 145.649C83.4143 144.842 85.0174 144.924 86.4444 145.156C93.0767 146.231 98.9499 149.644 104.63 152.986C111.418 156.98 117.297 159.257 124.085 163.251L124.413 167.848C118.737 168.976 112.723 167.888 107.872 164.94C105.75 163.65 103.777 161.981 101.293 161.489C99.2508 161.085 97.1369 161.54 95.0478 161.567C91.5688 161.613 88.0876 160.413 85.4899 158.274C82.8916 156.134 81.2026 153.076 80.8519 149.877C80.6833 148.342 80.925 146.578 82.2579 145.649Z" fill="#D1500E"/>
</g>
<path d="M118.597 148.395C118.614 148.348 122.569 149.487 127.429 150.939C132.292 152.391 136.218 153.607 136.202 153.655C136.186 153.702 132.232 152.563 127.369 151.111C122.508 149.658 118.58 148.443 118.597 148.395Z" fill="#FF9173"/>
<path d="M71.4873 166.768C71.4892 166.761 71.5956 166.782 71.7961 166.827C72.0131 166.879 72.3046 166.948 72.6707 167.034C73.4479 167.22 74.5406 167.482 75.8833 167.805C78.5971 168.451 82.3545 169.312 86.526 170.178C90.699 171.043 94.495 171.748 97.2474 172.235C98.61 172.474 99.7192 172.668 100.508 172.806C100.879 172.873 101.174 172.926 101.394 172.965C101.596 173.004 101.702 173.027 101.701 173.033C101.7 173.039 101.592 173.028 101.387 173.001C101.166 172.97 100.869 172.928 100.495 172.876C99.7207 172.764 98.6021 172.589 97.222 172.36C94.4621 171.905 90.6593 171.219 86.4833 170.354C82.3088 169.488 78.554 168.606 75.8481 167.928C74.4949 167.589 73.4026 167.306 72.6505 167.101C72.2881 167.001 72 166.922 71.7852 166.862C71.5885 166.806 71.4855 166.773 71.4873 166.768Z" fill="#FF735D"/>
<path d="M65.213 115.449C65.213 115.449 59.7411 116.574 57.5025 121.527C55.1113 126.817 48.6675 143.853 48.6675 143.853L65.8448 153.626L67.5161 145.744L65.213 115.449Z" fill="#E37712"/>
<path d="M61.5821 128.189C61.6349 128.178 63.7649 136.861 66.3389 147.58C68.914 158.303 70.9586 167.002 70.9057 167.013C70.8533 167.023 68.7237 158.342 66.1485 147.619C63.5741 136.9 61.5292 128.2 61.5821 128.189Z" fill="#2B3340"/>
<path d="M76.7433 172.406C76.7451 172.403 76.7751 172.42 76.8313 172.454C76.8962 172.494 76.9775 172.545 77.0783 172.609C77.3046 172.756 77.6175 172.96 78.0151 173.219C78.4187 173.487 78.9152 173.813 79.5043 174.174C80.0911 174.538 80.7488 174.967 81.5027 175.403C82.2496 175.849 83.0687 176.336 83.9681 176.829C84.8558 177.34 85.8312 177.843 86.8512 178.384C88.9078 179.436 91.2056 180.532 93.6713 181.578C96.1431 182.614 98.5451 183.5 100.753 184.247C101.863 184.605 102.914 184.956 103.913 185.241C104.906 185.546 105.841 185.799 106.695 186.027C107.546 186.268 108.327 186.446 109.009 186.618C109.69 186.792 110.281 186.926 110.765 187.031C111.237 187.139 111.609 187.224 111.877 187.286C111.995 187.315 112.09 187.338 112.166 187.356C112.231 187.373 112.264 187.383 112.263 187.387C112.262 187.39 112.228 187.385 112.161 187.374C112.084 187.361 111.988 187.343 111.869 187.321C111.598 187.267 111.223 187.193 110.748 187.1C110.261 187.004 109.666 186.881 108.982 186.715C108.297 186.553 107.512 186.383 106.657 186.15C105.799 185.929 104.861 185.683 103.864 185.383C102.861 185.104 101.806 184.758 100.693 184.403C98.4769 183.664 96.0674 182.78 93.5904 181.742C91.1194 180.694 88.8193 179.591 86.7632 178.529C85.7435 177.983 84.7692 177.474 83.8841 176.956C82.9866 176.457 82.1701 175.963 81.4274 175.509C80.6768 175.066 80.0237 174.629 79.4421 174.257C78.8586 173.887 78.3677 173.553 77.9705 173.276C77.5823 173.005 77.2758 172.792 77.0547 172.638C76.9587 172.569 76.8812 172.513 76.8193 172.469C76.7669 172.429 76.7414 172.409 76.7433 172.406Z" fill="#2B3340"/>
<path d="M113.405 131.095C113.454 131.074 115.313 134.74 117.558 139.282C119.803 143.826 121.582 147.524 121.533 147.545C121.484 147.566 119.625 143.901 117.38 139.357C115.136 134.815 113.356 131.116 113.405 131.095Z" fill="#2B3340"/>
<g opacity="0.300003">
<path d="M66.9793 149.698C63.8608 148.296 61.9178 145.196 61.4011 142.027C60.8843 138.858 61.6169 135.621 62.7141 132.58L66.9793 149.698Z" fill="#D1500E"/>
</g>
<g opacity="0.300003">
<path d="M111.539 187.265C105.475 187.992 99.201 187.164 93.5995 184.898C87.9977 182.632 83.0838 178.933 79.5479 174.323C89.6641 180.149 99.9343 185.209 111.539 187.265Z" fill="#D1500E"/>
</g>
<path d="M100.129 142.998L125.322 150.404C125.322 150.404 119.912 140.4 117.696 135.175C116.206 131.662 117.882 120.182 125.554 119.338C125.554 119.338 127.015 119.619 129.158 122.354C131.3 125.087 143.201 144.27 143.201 144.27C143.201 144.27 148.311 152.896 150.077 156.422C152.712 161.685 149.086 169.9 138.841 171.573C130.788 172.887 99.0771 155.631 99.0771 155.631L100.129 142.998Z" fill="#F7A68F"/>
<path d="M142.41 138.537L124.01 149.727L115.533 133.77L117.773 122.686L124.128 117.499C127.383 116.912 130.319 120.134 131.955 122.799L142.41 138.537Z" fill="#E37712"/>
<path d="M112.921 129.293C112.914 129.293 112.91 129.226 112.908 129.097C112.91 128.968 112.897 128.777 112.918 128.533C112.941 128.044 113.033 127.335 113.269 126.484C113.503 125.634 113.91 124.647 114.547 123.643C115.181 122.64 116.065 121.631 117.181 120.768C118.308 119.916 119.546 119.304 120.731 118.917C121.918 118.526 123.043 118.343 123.991 118.29C124.939 118.235 125.71 118.285 126.234 118.356C126.497 118.382 126.698 118.43 126.835 118.452C126.972 118.478 127.042 118.494 127.041 118.501C127.038 118.517 126.749 118.474 126.225 118.426C125.702 118.376 124.938 118.347 124.001 118.417C123.066 118.485 121.958 118.68 120.792 119.073C119.627 119.463 118.413 120.07 117.305 120.907C116.208 121.755 115.335 122.744 114.702 123.728C114.065 124.712 113.651 125.681 113.402 126.518C113.152 127.354 113.039 128.054 112.994 128.538C112.946 129.023 112.938 129.293 112.921 129.293Z" fill="#2B3340"/>
<path d="M95.3784 139.312V129.34C95.3784 128.451 94.5986 127.73 93.6367 127.73H81.7045C80.7422 127.73 79.9624 128.451 79.9624 129.34V150.36C79.9624 151.25 80.7422 151.97 81.7045 151.97H93.6367C94.5986 151.97 95.3784 151.25 95.3784 150.36V139.312Z" fill="#2B3340"/>
<path d="M106.628 146.233C106.628 146.233 103.484 144.669 102.84 143.999C102.195 143.328 98.3267 138.71 97.4397 137.965C96.5531 137.22 95.3442 136.699 95.3442 136.699V140.05C95.3442 140.05 94.9466 140.423 93.6946 140.646C92.4426 140.87 81.1588 138.784 80.3527 138.71C79.547 138.635 78.6604 138.635 78.6604 139.529C78.6604 140.423 79.6276 141.54 80.0304 141.839C80.4336 142.136 81.9648 142.509 81.9648 142.509C81.9648 142.509 78.4753 142.235 78.0725 142.682C77.6693 143.129 77.4272 144.183 77.9829 144.427C78.4491 144.631 80.9759 145.565 80.9759 145.565C80.9759 145.565 87.5262 147.946 87.6067 148.244C87.6873 148.542 83.6575 148.393 83.1741 148.244C82.6903 148.095 80.9171 146.978 80.3527 146.903C79.7887 146.829 78.741 147.322 79.2248 148.417C79.7082 149.511 80.9976 150.851 80.9976 150.851C80.9976 150.851 80.0304 151 79.9499 151.82C79.8693 152.639 80.111 152.788 80.5142 153.235C80.9171 153.682 82.4486 154.129 83.1741 154.129C83.8992 154.129 94.5381 156.364 95.3442 156.364C96.1502 156.364 99.2129 155.619 100.342 155.544C101.47 155.47 103.082 155.544 103.082 155.544L106.628 146.233Z" fill="#F7A68F"/>
<path d="M79.5371 142.43C79.536 142.418 79.7402 142.399 80.1131 142.377C80.2997 142.358 80.5275 142.366 80.7925 142.376C80.9266 142.38 81.0683 142.385 81.217 142.391C81.3677 142.406 81.5258 142.422 81.6903 142.438C83.0214 142.563 84.8118 142.983 86.7552 143.513C88.6993 144.044 90.4616 144.512 91.7676 144.715C91.9295 144.741 92.0842 144.767 92.2322 144.791C92.3788 144.807 92.5178 144.823 92.6497 144.837C92.9105 144.868 93.1353 144.895 93.3205 144.899C93.6896 144.918 93.8949 144.934 93.8953 144.946C93.8957 144.959 93.6907 144.966 93.3171 144.969C93.1301 144.976 92.903 144.959 92.6388 144.938C92.505 144.927 92.3641 144.916 92.2157 144.905C92.0659 144.884 91.9092 144.863 91.7455 144.84C90.4219 144.668 88.6434 144.217 86.7008 143.686C84.7582 143.157 82.9865 142.72 81.6731 142.565C81.5104 142.544 81.3546 142.524 81.2058 142.505C81.0589 142.495 80.9191 142.485 80.7868 142.476C80.5249 142.457 80.2989 142.439 80.1142 142.447C79.7443 142.448 79.5382 142.442 79.5371 142.43Z" fill="#ED8A72"/>
<path d="M90.0144 148.284C90.0463 148.233 90.9063 148.895 92.2178 149.094C93.526 149.314 94.5771 148.957 94.5888 149.015C94.597 149.034 94.3501 149.15 93.9157 149.241C93.4833 149.333 92.8582 149.378 92.1849 149.272C91.5118 149.163 90.9393 148.926 90.566 148.706C90.1902 148.485 90.0002 148.299 90.0144 148.284Z" fill="#ED8A72"/>
<path d="M80.8048 150.675C80.8097 150.663 80.9697 150.707 81.2541 150.795C81.5381 150.885 81.9504 151.011 82.4615 151.159C83.4834 151.458 84.9111 151.823 86.5157 152.109C88.1214 152.394 89.5945 152.542 90.6632 152.615C91.1976 152.653 91.6311 152.677 91.9306 152.691C92.2303 152.706 92.3963 152.721 92.3963 152.733C92.3963 152.746 92.23 152.755 91.9291 152.761C91.6281 152.769 91.1927 152.764 90.655 152.743C89.5799 152.702 88.0944 152.572 86.479 152.286C84.8643 151.999 83.4328 151.61 82.418 151.28C81.9103 151.115 81.5037 150.971 81.2275 150.861C80.9506 150.752 80.7999 150.686 80.8048 150.675Z" fill="#ED8A72"/>
<path d="M86.3306 131.11C86.3306 131.568 86.733 131.939 87.2295 131.939C87.7261 131.939 88.1285 131.568 88.1285 131.11C88.1285 130.652 87.7261 130.28 87.2295 130.28C86.733 130.28 86.3306 130.652 86.3306 131.11Z" fill="white"/>
<path d="M102.496 94.6599C103.678 91.4343 104.846 88.1837 105.41 84.8182C105.974 81.4526 105.91 77.9368 104.669 74.7302C104.48 74.244 102.864 70.9789 102.308 71.0232C101.91 71.0547 102.892 74.0947 102.687 74.4116C100.729 77.4329 100.159 81.0866 100.419 84.6C100.678 88.1134 101.427 91.2798 102.496 94.6599Z" fill="#2B3340"/>
<path d="M92.1747 123.031C97.8882 122.984 102.515 118.727 102.588 113.447L103.032 81.671C103.445 73.138 98.4166 65.8033 89.1757 65.6578L88.3206 65.6904C79.7179 66.0187 72.8274 72.3952 72.4905 80.346C72.1765 87.7437 71.9325 95.9214 72.1622 99.875C72.6378 108.06 81.5571 108.995 81.5571 108.995C81.5766 108.995 81.5811 110.894 81.5766 113.299C81.5657 118.703 86.3282 123.078 92.1747 123.031Z" fill="#F7A68F"/>
<path d="M81.5573 108.995C81.5573 108.995 87.1558 109.085 92.9533 105.402C92.9533 105.402 90.4066 111.465 81.5322 111.066L81.5573 108.995Z" fill="#ED8A72"/>
<path d="M102.58 87.7623C102.728 87.6961 108.593 85.8655 108.65 91.4714C108.707 97.0773 102.605 95.9735 102.593 95.8132C102.581 95.6522 102.58 87.7623 102.58 87.7623Z" fill="#FFAE98"/>
<path d="M104.425 93.6735C104.451 93.6552 104.531 93.7407 104.711 93.8148C104.886 93.8872 105.185 93.9353 105.501 93.8231C106.139 93.6004 106.669 92.6553 106.688 91.6448C106.699 91.1346 106.578 90.6498 106.379 90.2491C106.189 89.8408 105.9 89.5565 105.576 89.5062C105.254 89.4404 105.028 89.6209 104.955 89.7795C104.876 89.9367 104.915 90.0486 104.883 90.0586C104.867 90.0728 104.752 89.9655 104.798 89.7338C104.823 89.6219 104.892 89.4893 105.034 89.3805C105.178 89.2697 105.392 89.2122 105.617 89.2327C106.084 89.2583 106.509 89.6524 106.729 90.0922C106.974 90.5334 107.123 91.0785 107.111 91.6514C107.084 92.7814 106.469 93.8439 105.594 94.0856C105.169 94.1923 104.811 94.0763 104.626 93.9457C104.437 93.8086 104.404 93.6839 104.425 93.6735Z" fill="#ED8A72"/>
<path d="M76.4099 71.0575C75.4277 70.5574 78.372 67.6178 80.7841 66.6048C84.4295 65.0741 89.9969 64.13 93.359 65.0093C97.4075 66.068 100.771 67.9274 102.806 71.3314C104.84 74.735 105.606 78.7014 105.49 82.5882C105.455 83.774 105.322 85.0104 104.638 86.0136C103.791 87.2535 102.166 88.0351 102.238 89.7446C102.264 90.3693 102.072 91.0003 101.609 91.4564C100.5 92.5484 99.1414 91.5236 98.5167 90.4961C97.182 88.3011 97.0317 85.6794 96.9129 83.1641C96.8286 81.3761 96.7491 79.5496 97.2936 77.8322C97.59 76.8978 98.0659 76.0143 98.3058 75.0661C98.5456 74.1179 98.5137 73.0415 97.8745 72.2675C97.7703 72.1418 97.5987 71.9828 97.3813 71.8072C95.6628 70.4164 93.2578 70.0012 91.1046 70.7063C87.6897 71.8249 81.857 73.4959 80.3329 72.4251C78.14 70.885 77.6154 69.8803 77.6154 69.8803L76.4099 71.0575Z" fill="#2B3340"/>
<path d="M78.854 70.1357L78.9327 69.0677C78.9852 68.3556 82.2064 64.5523 86.88 65.2041C91.5536 65.8555 92.9533 71.0226 92.9533 71.0226L78.854 70.1357ZM72.4634 79.5767C72.4634 79.5767 73.4789 76.7639 74.4854 75.263C75.4919 73.762 78.7708 72.4962 79.4851 72.2652C80.1989 72.0339 88.3587 72.0872 94.1517 73.1878C99.9442 74.2884 105.3 85.4358 105.3 85.4358L105.953 82.3463C105.953 82.3463 105.366 76.3774 105.365 75.0299C105.365 73.6824 102.906 69.2301 102.259 68.5454C101.613 67.8607 95.3804 64.6161 94.7066 64.2978C94.0332 63.9795 88.5581 62.623 85.9342 63.1016C83.3103 63.5809 76.6263 66.4727 75.1509 67.5761C73.676 68.6794 73.2526 69.0209 72.4578 70.3511C71.6629 71.681 72.4634 79.5767 72.4634 79.5767Z" fill="#2B3340"/>
<path d="M78.9817 72.2678C78.9936 72.2387 78.8366 72.1848 78.6942 72.0022C78.5477 71.8244 78.4533 71.5127 78.5563 71.1786C78.6519 70.8442 78.8704 70.5816 79.0259 70.3931C79.1855 70.205 79.2863 70.0843 79.2642 70.0642C79.2443 70.0462 79.1079 70.1303 78.9138 70.3001C78.7261 70.4696 78.4627 70.7408 78.3502 71.1288C78.2266 71.5162 78.372 71.9126 78.5796 72.0921C78.7849 72.2841 78.9802 72.2903 78.9817 72.2678Z" fill="#2B3340"/>
<path d="M80.8054 70.9034C80.7848 70.9259 80.8755 71.0061 80.8549 71.1582C80.8452 71.2305 80.8058 71.3169 80.7327 71.3612C80.6634 71.4072 80.5544 71.403 80.4592 71.347C80.3651 71.2893 80.3172 71.1987 80.3348 71.1216C80.3494 71.0421 80.4191 70.974 80.4869 70.9366C80.6293 70.8581 80.7455 70.9024 80.7594 70.8758C80.7826 70.8619 80.657 70.7399 80.4258 70.8097C80.3209 70.8443 80.192 70.9256 80.1437 71.0801C80.0916 71.2371 80.1875 71.4224 80.3427 71.5116C80.4937 71.6066 80.7163 71.6129 80.8512 71.5057C80.9846 71.4027 81.0138 71.2613 81.0055 71.1582C80.9816 70.9349 80.8099 70.8782 80.8054 70.9034Z" fill="#2B3340"/>
<path d="M83.4806 71.0533C83.46 71.0758 83.5506 71.156 83.53 71.3081C83.5207 71.38 83.4809 71.4668 83.4079 71.5111C83.3385 71.5571 83.2295 71.5529 83.1343 71.4969C83.0403 71.4392 82.9923 71.3486 83.0099 71.2715C83.0245 71.1916 83.0942 71.1239 83.162 71.0865C83.3048 71.008 83.4206 71.0523 83.4348 71.0257C83.4581 71.0115 83.3325 70.8898 83.1013 70.9593C82.996 70.9942 82.8671 71.0755 82.8188 71.23C82.7671 71.387 82.863 71.5723 83.0181 71.6615C83.1688 71.7565 83.3914 71.7628 83.5263 71.6556C83.6601 71.5526 83.6889 71.4112 83.6807 71.3081C83.6567 71.0848 83.4851 71.0281 83.4806 71.0533Z" fill="#2B3340"/>
<path d="M86.1551 71.203C86.1344 71.2251 86.2251 71.3057 86.2045 71.4574C86.1948 71.5297 86.1554 71.6161 86.0824 71.6604C86.013 71.7067 85.904 71.7026 85.8088 71.6466C85.7147 71.5888 85.6668 71.4982 85.6844 71.4211C85.699 71.3413 85.7687 71.2732 85.8365 71.2362C85.9789 71.1577 86.0951 71.2016 86.109 71.1753C86.1322 71.1612 86.007 71.0395 85.7754 71.109C85.6705 71.1435 85.5416 71.2251 85.4933 71.3793C85.4412 71.5363 85.5371 71.7219 85.6923 71.8111C85.8433 71.9062 86.0659 71.9124 86.2008 71.8053C86.3342 71.7022 86.3634 71.5608 86.3552 71.4578C86.3312 71.2345 86.1595 71.1778 86.1551 71.203Z" fill="#2B3340"/>
<path d="M88.8297 71.3524C88.8091 71.3749 88.8998 71.4551 88.8791 71.6072C88.8698 71.6795 88.8301 71.7659 88.757 71.8101C88.688 71.8561 88.5786 71.852 88.4834 71.796C88.3894 71.7382 88.3414 71.6477 88.3594 71.5706C88.3736 71.491 88.4433 71.4229 88.5112 71.3856C88.6539 71.3071 88.7697 71.3514 88.784 71.3247C88.8072 71.3106 88.6817 71.1889 88.4505 71.2587C88.3452 71.2933 88.2163 71.3745 88.1679 71.5291C88.1162 71.686 88.2121 71.8713 88.3673 71.9605C88.5179 72.0556 88.7405 72.0618 88.8754 71.9547C89.0092 71.8516 89.038 71.7102 89.0302 71.6072C89.0058 71.3839 88.8342 71.3272 88.8297 71.3524Z" fill="#2B3340"/>
<path d="M91.5042 71.5023C91.4836 71.5248 91.5742 71.605 91.5536 71.7568C91.5439 71.829 91.5045 71.9158 91.4315 71.9601C91.3622 72.006 91.2531 72.0019 91.1579 71.9459C91.0639 71.8881 91.0159 71.7976 91.0335 71.7205C91.0481 71.6406 91.1178 71.5728 91.1857 71.5355C91.328 71.457 91.4442 71.5009 91.4581 71.4746C91.4813 71.4605 91.3562 71.3388 91.1246 71.4083C91.0196 71.4428 90.8907 71.5244 90.8424 71.679C90.7903 71.8356 90.8862 72.0212 91.0414 72.1104C91.1924 72.2055 91.415 72.2117 91.5499 72.1046C91.6833 72.0015 91.7125 71.8601 91.7043 71.7571C91.6803 71.5338 91.5087 71.4771 91.5042 71.5023Z" fill="#2B3340"/>
<path d="M86.6952 65.471C86.2005 65.4506 85.966 64.8109 85.4709 64.8126C84.9759 64.8144 84.4921 65.0786 84.2519 65.479C84.0743 65.0551 83.5774 64.7652 83.0869 64.7998C82.5964 64.8345 82.1523 65.1901 82.0463 65.6341C81.6667 65.5188 81.2466 65.4041 80.8782 65.5472C80.5095 65.6902 80.3244 66.2218 80.6545 66.4299C80.1677 66.1702 79.5273 66.076 79.0537 66.3558C78.5804 66.6353 78.4492 67.3678 78.9053 67.6712C78.3675 67.4419 77.6672 67.6067 77.3142 68.0462C76.9608 68.4857 76.9919 69.1527 77.385 69.5624C77.4764 69.6577 77.5948 69.7435 77.7327 69.7512C77.9834 69.765 78.1622 69.5191 78.2087 69.2909C78.2547 69.0627 78.227 68.8185 78.3289 68.6059C78.4309 68.3936 78.7516 68.244 78.9341 68.4036C78.6868 68.7915 78.4477 69.3099 78.761 69.6545C78.9772 69.8918 79.1983 70.1723 79.5341 70.1789C81.4415 70.217 91.0447 70.9848 92.9524 71.0232C92.9524 71.0232 91.2789 65.6583 86.6952 65.471Z" fill="#2B3340"/>
<path d="M104.774 84.4675C104.833 84.9392 105.37 85.2305 105.872 85.3302C106.375 85.4299 106.914 85.4209 107.368 85.6429C107.822 85.8649 108.126 86.4585 107.791 86.8183C107.514 87.1158 107.003 87.0646 106.598 86.9461C104.77 86.4111 103.282 84.9787 102.777 83.2696C102.11 83.68 101.15 83.3479 100.671 82.7546C100.192 82.161 100.068 81.3925 99.9599 80.6587C97.8761 80.7518 95.914 78.9984 95.9447 77.0705C95.9616 76.0038 96.4918 74.9011 96.0743 73.9065C96.0743 73.9065 98.8387 75.7815 100.198 77.5155C101.556 79.2492 104.774 84.4675 104.774 84.4675Z" fill="#2B3340"/>
<path d="M107.139 86.8093C107.392 86.7826 107.614 87.0275 107.596 87.2626C107.577 87.4978 107.373 87.6945 107.136 87.7811C106.898 87.8676 106.634 87.8625 106.38 87.8358C105.617 87.7558 104.878 87.4895 104.258 87.0704C103.99 87.5366 103.346 87.7551 102.788 87.6418C102.231 87.5289 101.773 87.1328 101.516 86.6611C101.26 86.1897 101.185 85.6502 101.193 85.1224C100.686 85.4642 99.9422 85.4022 99.4326 85.0642C98.9222 84.7262 98.6288 84.162 98.5284 83.5899C98.4283 83.0174 98.5022 82.4315 98.6048 81.8593C98.1465 82.2659 97.2993 81.9944 97.0325 81.4618C96.7657 80.9291 96.9508 80.287 97.288 79.7897C96.464 79.539 96.0308 78.534 96.443 77.8285C96.0709 78.0872 95.4893 77.8857 95.2551 77.5141C95.0209 77.1421 95.0546 76.676 95.1671 76.2587C95.2795 75.8413 95.4627 75.4372 95.5077 75.0091C95.5691 74.4259 95.3559 73.8223 94.9336 73.3849C96.0675 73.5743 97.0771 74.1887 97.8868 74.9464C98.6963 75.7042 99.3281 76.605 99.9546 77.4988C101.66 79.9321 103.365 82.3657 105.07 84.7989" fill="#2B3340"/>
<path d="M72.4406 79.2664C72.4631 79.7041 72.3155 80.217 71.9261 80.6808C71.5372 81.1445 71.0163 81.5223 70.7379 82.0498C70.4598 82.5776 70.5539 83.3519 71.1422 83.5732C70.6667 84.188 70.5419 85.0219 70.8188 85.7332C71.0957 86.4446 71.7669 87.0136 72.5576 87.2075C72.685 84.7396 72.625 81.2948 72.6374 78.8245" fill="#2B3340"/>
<g filter="url(#filter2_dd_1555_22476)">
<path d="M116.167 14.1864L113.157 15.7434L112.49 16.0933C112.381 16.142 112.214 16.1253 112.121 16.0492L110.544 14.7553C110.049 14.3494 109.161 14.2332 108.571 14.4904C108.367 14.5816 108.215 14.7672 108.165 14.9852C108.032 15.6094 108.325 16.4616 108.82 16.8675L110.397 18.1614C110.49 18.2376 110.539 18.3985 110.512 18.5148L109.365 22.4886C109.232 22.9232 109.424 23.5201 109.774 23.8077L110.455 24.3659C110.893 24.7253 111.38 24.573 111.539 24.0221L112.544 20.5266C112.621 20.2537 112.865 20.1775 113.086 20.3594L113.658 20.8287L114.586 21.5899C114.705 21.6871 114.82 21.8937 114.835 22.0438L115.054 24.2248C115.077 24.45 115.272 24.7054 115.494 24.7925L116.385 25.1356C116.766 25.2923 117.193 25.0654 117.281 24.6635L117.257 22.5912C117.249 22.2745 117.499 21.9705 117.811 21.916L119.848 21.535C120.22 21.3657 120.364 20.9063 120.144 20.5537L119.634 19.7467C119.51 19.5504 119.216 19.4042 118.991 19.4264L116.809 19.6369C116.655 19.6568 116.43 19.5843 116.311 19.487L114.812 18.2565C114.59 18.0747 114.618 17.8304 114.869 17.6918L118.101 16.023C118.611 15.7597 118.665 15.2522 118.227 14.8928L117.546 14.3346C117.196 14.0471 116.573 13.9759 116.167 14.1864Z" fill="#E37712"/>
</g>
<g filter="url(#filter3_d_1555_22476)">
<path d="M130.75 58.4788C130.75 58.4788 136.192 51.6343 107.446 43.4053C91.5612 38.8583 121.917 34.907 141.004 38.158C152.938 40.1906 119.721 25.4132 119.721 25.4132" stroke="#E37712" stroke-dasharray="2 2"/>
</g>
<defs>
<filter id="filter0_f_1555_22476" x="2.26938" y="16.6766" width="76.1219" height="77.1692" filterUnits="userSpaceOnUse" color-interpolation-filters="sRGB">
<feFlood flood-opacity="0" result="BackgroundImageFix"/>
<feBlend mode="normal" in="SourceGraphic" in2="BackgroundImageFix" result="shape"/>
<feGaussianBlur stdDeviation="2.49153" result="effect1_foregroundBlur_1555_22476"/>
</filter>
<filter id="filter1_d_1555_22476" x="25.7821" y="51.8095" width="58.1429" height="35.8607" filterUnits="userSpaceOnUse" color-interpolation-filters="sRGB">
<feFlood flood-opacity="0" result="BackgroundImageFix"/>
<feColorMatrix in="SourceAlpha" type="matrix" values="0 0 0 0 0 0 0 0 0 0 0 0 0 0 0 0 0 0 127 0" result="hardAlpha"/>
<feOffset dy="2.49153"/>
<feGaussianBlur stdDeviation="2.49153"/>
<feComposite in2="hardAlpha" operator="out"/>
<feColorMatrix type="matrix" values="0 0 0 0 0.215686 0 0 0 0 0.254902 0 0 0 0 0.317647 0 0 0 0.1 0"/>
<feBlend mode="normal" in2="BackgroundImageFix" result="effect1_dropShadow_1555_22476"/>
<feBlend mode="normal" in="SourceGraphic" in2="effect1_dropShadow_1555_22476" result="shape"/>
</filter>
<filter id="filter2_dd_1555_22476" x="82.2104" y="7.65576" width="62.5181" height="62.5181" filterUnits="userSpaceOnUse" color-interpolation-filters="sRGB">
<feFlood flood-opacity="0" result="BackgroundImageFix"/>
<feColorMatrix in="SourceAlpha" type="matrix" values="0 0 0 0 0 0 0 0 0 0 0 0 0 0 0 0 0 0 127 0" result="hardAlpha"/>
<feMorphology radius="5" operator="erode" in="SourceAlpha" result="effect1_dropShadow_1555_22476"/>
<feOffset dy="20"/>
<feGaussianBlur stdDeviation="12.5"/>
<feComposite in2="hardAlpha" operator="out"/>
<feColorMatrix type="matrix" values="0 0 0 0 0.215686 0 0 0 0 0.254902 0 0 0 0 0.317647 0 0 0 0.1 0"/>
<feBlend mode="normal" in2="BackgroundImageFix" result="effect1_dropShadow_1555_22476"/>
<feColorMatrix in="SourceAlpha" type="matrix" values="0 0 0 0 0 0 0 0 0 0 0 0 0 0 0 0 0 0 127 0" result="hardAlpha"/>
<feMorphology radius="5" operator="erode" in="SourceAlpha" result="effect2_dropShadow_1555_22476"/>
<feOffset dy="10"/>
<feGaussianBlur stdDeviation="5"/>
<feComposite in2="hardAlpha" operator="out"/>
<feColorMatrix type="matrix" values="0 0 0 0 0.215686 0 0 0 0 0.254902 0 0 0 0 0.317647 0 0 0 0.04 0"/>
<feBlend mode="normal" in2="effect1_dropShadow_1555_22476" result="effect2_dropShadow_1555_22476"/>
<feBlend mode="normal" in="SourceGraphic" in2="effect2_dropShadow_1555_22476" result="shape"/>
</filter>
<filter id="filter3_d_1555_22476" x="98.5918" y="24.9563" width="49.1753" height="41.8335" filterUnits="userSpaceOnUse" color-interpolation-filters="sRGB">
<feFlood flood-opacity="0" result="BackgroundImageFix"/>
<feColorMatrix in="SourceAlpha" type="matrix" values="0 0 0 0 0 0 0 0 0 0 0 0 0 0 0 0 0 0 127 0" result="hardAlpha"/>
<feOffset dy="4"/>
<feGaussianBlur stdDeviation="2"/>
<feComposite in2="hardAlpha" operator="out"/>
<feColorMatrix type="matrix" values="0 0 0 0 0 0 0 0 0 0 0 0 0 0 0 0 0 0 0.25 0"/>
<feBlend mode="normal" in2="BackgroundImageFix" result="effect1_dropShadow_1555_22476"/>
<feBlend mode="normal" in="SourceGraphic" in2="effect1_dropShadow_1555_22476" result="shape"/>
</filter>
</defs>
</svg>
